<svg width="171" height="171" viewBox="0 0 171 171" fill="none" xmlns="http://www.w3.org/2000/svg">
<mask id="mask0_1470_284" style="mask-type:luminance" maskUnits="userSpaceOnUse" x="0" y="0" width="171" height="171">
<path d="M85.2803 170.08C132.247 170.08 170.32 132.006 170.32 85.04C170.32 38.0737 132.247 0 85.2803 0C38.314 0 0.240234 38.0737 0.240234 85.04C0.240234 132.006 38.314 170.08 85.2803 170.08Z" fill="white"/>
</mask>
<g mask="url(#mask0_1470_284)">
<path d="M85.2803 170.08C132.247 170.08 170.32 132.006 170.32 85.04C170.32 38.0737 132.247 0 85.2803 0C38.314 0 0.240234 38.0737 0.240234 85.04C0.240234 132.006 38.314 170.08 85.2803 170.08Z" fill="#D9D9D9"/>
<path d="M20.2296 145.74C19.2396 145.74 18.4295 144.95 18.4095 143.95C18.3895 142.95 19.1896 142.12 20.1996 142.1L56.6296 141.44C57.6096 141.42 58.4596 142.22 58.4796 143.23C58.4996 144.23 57.6996 145.06 56.6896 145.08L20.2596 145.74H20.2296Z" fill="white"/>
<path d="M132.28 62.4899C123.08 62.4899 115.59 55.0099 115.59 45.7999C115.59 36.5899 123.08 29.1099 132.28 29.1099C141.48 29.1099 148.96 36.5899 148.96 45.7999C148.96 55.0099 141.48 62.4899 132.28 62.4899ZM132.28 34.1199C125.84 34.1199 120.59 39.3599 120.59 45.8099C120.59 52.2599 125.83 57.4999 132.28 57.4999C138.73 57.4999 143.96 52.2599 143.96 45.8099C143.96 39.3599 138.72 34.1199 132.28 34.1199Z" fill="white"/>
<path d="M105.51 125.83C105.18 125.83 104.84 125.81 104.5 125.76C102.48 125.49 100.66 124.39 99.3799 122.65C97.7399 120.42 97.1499 117.41 97.7099 114.18L102.58 78.0796C102.58 78.0196 102.6 77.9496 102.61 77.8896C105.28 65.3996 116.38 61.8396 123.7 61.5596V58.6196C123.7 57.2396 124.82 56.1196 126.2 56.1196C127.58 56.1196 128.7 57.2396 128.7 58.6196V64.1096C128.7 64.8096 128.41 65.4796 127.89 65.9496C127.37 66.4196 126.69 66.6596 125.99 66.5996C125.36 66.5496 110.43 65.5596 107.52 78.8496L102.65 114.94C102.31 116.88 102.59 118.58 103.4 119.68C103.73 120.13 104.29 120.68 105.14 120.79C105.77 120.87 106.24 120.76 106.68 120.41C107.97 119.41 108.65 116.81 108.77 115.7L113.15 86.9996C113.36 85.6396 114.63 84.6996 116 84.9096C117.37 85.1196 118.3 86.3896 118.09 87.7596L113.72 116.37C113.67 116.84 113.01 121.81 109.75 124.35C108.52 125.31 107.06 125.81 105.49 125.81L105.51 125.83Z" fill="white"/>
<path d="M115.63 171.12C114.25 171.12 113.13 170 113.13 168.62V82.54C113.13 81.16 114.25 80.04 115.63 80.04C117.01 80.04 118.13 81.16 118.13 82.54V168.62C118.13 170 117.01 171.12 115.63 171.12Z" fill="white"/>
<path d="M154.09 123.6C151.98 123.6 150.17 122.83 148.86 121.38C146.13 118.35 146.55 113.4 146.61 112.84C146.75 111.47 147.99 110.45 149.35 110.61C150.72 110.75 151.72 111.98 151.58 113.35C151.48 114.4 151.58 116.94 152.58 118.03C152.82 118.29 153.2 118.59 154.09 118.59C154.82 118.59 155.34 118.39 155.77 117.95C156.97 116.72 157.19 114.01 157.17 113.15C157.17 112.91 156.93 93.0296 157.17 78.3696C157.22 75.5796 156.36 73.3496 154.55 71.5496C149.43 66.4496 138.69 66.6096 138.58 66.6096C137.93 66.6396 137.26 66.3696 136.78 65.8996C136.3 65.4296 136.03 64.7896 136.03 64.1096V58.6196C136.03 57.2396 137.15 56.1196 138.53 56.1196C139.91 56.1196 141.03 57.2396 141.03 58.6196V61.6796C145.13 61.9496 153.17 63.1196 158.07 67.9896C160.86 70.7596 162.24 74.2796 162.17 78.4496C161.93 93.0396 162.17 112.86 162.17 113.05C162.19 113.55 162.25 118.45 159.37 121.42C158 122.83 156.17 123.58 154.09 123.58V123.6Z" fill="white"/>
<path d="M149.09 171.12C147.71 171.12 146.59 170 146.59 168.62V82.54C146.59 81.16 147.71 80.04 149.09 80.04C150.47 80.04 151.59 81.16 151.59 82.54V168.62C151.59 170 150.47 171.12 149.09 171.12Z" fill="white"/>
<path d="M132.28 172.09C130.9 172.09 129.78 170.97 129.78 169.59V114.55C129.78 113.17 130.9 112.05 132.28 112.05C133.66 112.05 134.78 113.17 134.78 114.55V169.59C134.78 170.97 133.66 172.09 132.28 172.09Z" fill="white"/>
<path d="M86.4795 175.23C85.3795 175.23 84.4795 174.33 84.4795 173.23V154.56C84.4795 153.46 85.3795 152.56 86.4795 152.56C87.5795 152.56 88.4795 153.46 88.4795 154.56V173.23C88.4795 174.33 87.5795 175.23 86.4795 175.23Z" fill="white"/>
<path d="M95.9298 175.23C94.8298 175.23 93.9298 174.33 93.9298 173.23V142.92C93.9298 142.44 94.0997 141.98 94.4097 141.62L105.56 128.56C105.78 128.19 106.13 127.26 105.08 126.21C104.07 125.21 102.75 125.99 102.35 126.27L94.3698 135.44C93.9898 135.88 93.4397 136.13 92.8597 136.13H80.3198C79.7398 136.13 79.1898 135.88 78.8098 135.44L70.8298 126.27C70.3798 125.96 69.0898 125.22 68.0898 126.21C66.9698 127.33 67.4497 128.3 67.5997 128.56L78.7498 141.63C79.0598 141.99 79.2297 142.45 79.2297 142.93V173.24C79.2297 174.34 78.3297 175.24 77.2297 175.24C76.1297 175.24 75.2297 174.34 75.2297 173.24V143.67L64.4797 131.08C64.4797 131.08 64.4098 130.99 64.3698 130.94C63.4098 129.59 62.3698 126.28 65.2498 123.4C68.1998 120.46 71.8898 122.02 73.4298 123.25C73.5198 123.33 73.6098 123.41 73.6898 123.5L81.2197 132.15H91.9298L99.4598 123.5C99.5398 123.41 99.6197 123.33 99.7197 123.25C101.26 122.01 104.96 120.45 107.9 123.4C110.79 126.29 109.74 129.6 108.78 130.94C108.75 130.99 108.71 131.03 108.67 131.08L97.9197 143.67V173.24C97.9197 174.34 97.0197 175.24 95.9197 175.24L95.9298 175.23Z" fill="white"/>
<path d="M38.2798 66.13C29.0798 66.13 21.5898 58.65 21.5898 49.44C21.5898 40.23 29.0798 32.75 38.2798 32.75C47.4798 32.75 54.9698 40.23 54.9698 49.44C54.9698 58.65 47.4798 66.13 38.2798 66.13ZM38.2798 37.76C31.8398 37.76 26.5898 43 26.5898 49.45C26.5898 55.9 31.8298 61.14 38.2798 61.14C44.7298 61.14 49.9698 55.9 49.9698 49.45C49.9698 43 44.7298 37.76 38.2798 37.76Z" fill="white"/>
<path d="M65.0504 126.55C63.4804 126.55 62.0303 126.05 60.7903 125.09C57.8003 122.76 57.0004 118.37 56.8304 117.24L48.1504 86.8598C47.7704 85.5298 48.5404 84.1498 49.8704 83.7698C51.2004 83.3798 52.5804 84.1598 52.9604 85.4898L61.6904 116.04C61.7304 116.17 61.7504 116.3 61.7704 116.44C61.8804 117.32 62.5004 120.09 63.8704 121.15C64.3104 121.49 64.7803 121.61 65.4103 121.52C66.2503 121.41 66.8204 120.85 67.1504 120.41C67.9404 119.33 68.2304 117.68 67.9404 115.88L58.7303 83.4598C58.7103 83.4098 58.7004 83.3498 58.6904 83.2998C55.8004 69.7798 44.9504 70.2098 44.4904 70.2398C43.8004 70.2898 43.1304 70.0298 42.6404 69.5598C42.1404 69.0898 41.8604 68.4298 41.8604 67.7498V62.2598C41.8604 60.8798 42.9804 59.7598 44.3604 59.7598C45.7404 59.7598 46.8604 60.8798 46.8604 62.2598V65.3598C52.5804 66.0998 60.9604 70.1498 63.5604 82.1698L72.7903 114.65C72.8103 114.73 72.8303 114.82 72.8503 114.9C73.4103 118.13 72.8204 121.14 71.1804 123.37C69.9004 125.11 68.0904 126.21 66.0704 126.48C65.7304 126.52 65.3904 126.55 65.0604 126.55H65.0504Z" fill="white"/>
<path d="M56.6594 144.77C55.3994 144.77 54.3195 143.82 54.1795 142.54L48.0795 86.4601C47.9295 85.0901 48.9194 83.8501 50.2894 83.7001C51.6694 83.5501 52.8995 84.5401 53.0495 85.9101L59.1495 141.99C59.2995 143.36 58.3095 144.6 56.9395 144.75C56.8495 144.75 56.7594 144.76 56.6694 144.76L56.6594 144.77Z" fill="white"/>
<path d="M16.4699 127.24C14.3899 127.24 12.57 126.49 11.19 125.08C8.30996 122.11 8.36997 117.21 8.38997 116.66C8.38997 116.61 8.38997 116.57 8.38997 116.52C8.40997 116.32 10.1699 96.2998 12.0399 81.7498C13.5399 70.0498 23.03 66.0898 29.52 65.3798V62.2798C29.52 60.8998 30.64 59.7798 32.02 59.7798C33.4 59.7798 34.52 60.8998 34.52 62.2798V67.7698C34.52 68.4398 34.25 69.0898 33.77 69.5598C33.29 70.0298 32.63 70.2998 31.96 70.2698C31.42 70.2598 18.5599 70.1898 16.9899 82.3898C15.1999 96.3598 13.5 115.44 13.37 116.88C13.37 117.78 13.59 120.41 14.77 121.61C15.2 122.05 15.72 122.25 16.45 122.25C19.78 122.25 19.9299 117.07 19.9299 117.02C19.9599 115.66 21.07 114.57 22.4299 114.57C22.45 114.57 22.4699 114.57 22.4799 114.57C23.8599 114.6 24.96 115.74 24.93 117.12C24.86 120.62 22.99 127.25 16.45 127.25L16.4699 127.24Z" fill="white"/>
<path d="M20.2303 145.42C20.1603 145.42 20.0903 145.42 20.0103 145.42C18.6303 145.3 17.6103 144.09 17.7303 142.71L22.6003 85.9698C22.7203 84.5898 23.9203 83.5798 25.3103 83.6898C26.6903 83.8098 27.7103 85.0198 27.5903 86.3998L22.7203 143.14C22.6103 144.44 21.5203 145.43 20.2303 145.43V145.42Z" fill="white"/>
<path d="M38.2803 177.73C36.9003 177.73 35.7803 176.61 35.7803 175.23V144.92C35.7803 143.54 36.9003 142.42 38.2803 142.42C39.6603 142.42 40.7803 143.54 40.7803 144.92V175.23C40.7803 176.61 39.6603 177.73 38.2803 177.73Z" fill="white"/>
<path d="M27.3701 177.73C25.9901 177.73 24.8701 176.61 24.8701 175.23V144.92C24.8701 143.54 25.9901 142.42 27.3701 142.42C28.7501 142.42 29.8701 143.54 29.8701 144.92V175.23C29.8701 176.61 28.7501 177.73 27.3701 177.73Z" fill="white"/>
<path d="M49.9199 177.73C48.5399 177.73 47.4199 176.61 47.4199 175.23V144.92C47.4199 143.54 48.5399 142.42 49.9199 142.42C51.2999 142.42 52.4199 143.54 52.4199 144.92V175.23C52.4199 176.61 51.2999 177.73 49.9199 177.73Z" fill="white"/>
<path d="M86.1595 129.13C80.2895 129.13 75.5195 124.36 75.5195 118.49C75.5195 112.62 80.2895 107.85 86.1595 107.85C92.0295 107.85 96.7995 112.62 96.7995 118.49C96.7995 124.36 92.0295 129.13 86.1595 129.13ZM86.1595 111.85C82.4995 111.85 79.5195 114.83 79.5195 118.49C79.5195 122.15 82.4995 125.13 86.1595 125.13C89.8195 125.13 92.7995 122.15 92.7995 118.49C92.7995 114.83 89.8195 111.85 86.1595 111.85Z" fill="white"/>
</g>
<path d="M85.2602 61.8C84.1302 61.8 83.0202 61.47 82.0002 60.8C74.6802 56.04 69.8002 51.51 66.2002 46.12C62.5002 40.58 61.6102 34.88 63.5702 29.17C65.1702 24.48 68.8502 20.86 73.3902 19.48C77.3402 18.28 81.6002 18.89 85.3002 21.14C87.6302 19.69 90.0202 18.94 92.5702 18.86C100.09 18.63 106.47 24.13 107.75 31.93C108.49 36.44 107.57 40.87 105.04 45.09C101.53 50.93 96.5502 55.09 92.1502 58.39C91.0002 59.25 89.8102 60.03 88.7802 60.7C87.6502 61.43 86.4502 61.79 85.2702 61.79L85.2602 61.8ZM77.4802 23.88C76.5902 23.88 75.7102 24.01 74.8402 24.27C71.8302 25.18 69.3802 27.62 68.3002 30.79C66.8602 35 67.5302 39.11 70.3602 43.34C73.5702 48.14 78.0002 52.23 84.7202 56.6C85.0102 56.79 85.3602 56.94 86.0502 56.5C87.0102 55.88 88.1102 55.16 89.1402 54.39C93.1602 51.38 97.6802 47.62 100.75 42.52C102.69 39.3 103.37 36.1 102.82 32.74C101.95 27.44 97.6902 23.69 92.7302 23.86C90.7102 23.92 88.7802 24.67 86.8302 26.16L85.3102 27.32L83.7902 26.16C81.8202 24.65 79.6502 23.88 77.4802 23.88Z" fill="white"/>
</svg>
