<svg width="171" height="171" viewBox="0 0 171 171" fill="none" xmlns="http://www.w3.org/2000/svg">
<path d="M85.3603 170.08C132.327 170.08 170.4 132.006 170.4 85.04C170.4 38.0737 132.327 0 85.3603 0C38.394 0 0.320312 38.0737 0.320312 85.04C0.320312 132.006 38.394 170.08 85.3603 170.08Z" fill="#D9D9D9"/>
<mask id="mask0_1470_177" style="mask-type:luminance" maskUnits="userSpaceOnUse" x="0" y="0" width="171" height="171">
<path d="M85.3603 170.08C132.327 170.08 170.4 132.006 170.4 85.04C170.4 38.0737 132.327 0 85.3603 0C38.394 0 0.320312 38.0737 0.320312 85.04C0.320312 132.006 38.394 170.08 85.3603 170.08Z" fill="white"/>
</mask>
<g mask="url(#mask0_1470_177)">
<path d="M85.2795 97.41C75.2995 97.41 67.1895 89.29 67.1895 79.32C67.1895 69.35 75.3095 61.23 85.2795 61.23C95.2495 61.23 103.369 69.35 103.369 79.32C103.369 89.29 95.2495 97.41 85.2795 97.41ZM85.2795 66.23C78.0595 66.23 72.1895 72.1 72.1895 79.32C72.1895 86.54 78.0595 92.41 85.2795 92.41C92.4995 92.41 98.3694 86.54 98.3694 79.32C98.3694 72.1 92.4995 66.23 85.2795 66.23Z" fill="white"/>
<path d="M37.5997 109.42C27.6197 109.42 19.5098 101.3 19.5098 91.3298C19.5098 81.3597 27.6297 73.2397 37.5997 73.2397C47.5697 73.2397 55.6898 81.3597 55.6898 91.3298C55.6898 101.3 47.5697 109.42 37.5997 109.42ZM37.5997 78.2397C30.3797 78.2397 24.5098 84.1098 24.5098 91.3298C24.5098 98.5497 30.3797 104.42 37.5997 104.42C44.8197 104.42 50.6898 98.5497 50.6898 91.3298C50.6898 84.1098 44.8197 78.2397 37.5997 78.2397Z" fill="white"/>
<path d="M132.79 109.42C122.81 109.42 114.7 101.3 114.7 91.3298C114.7 81.3597 122.82 73.2397 132.79 73.2397C142.76 73.2397 150.88 81.3597 150.88 91.3298C150.88 101.3 142.76 109.42 132.79 109.42ZM132.79 78.2397C125.57 78.2397 119.7 84.1098 119.7 91.3298C119.7 98.5497 125.57 104.42 132.79 104.42C140.01 104.42 145.88 98.5497 145.88 91.3298C145.88 84.1098 140.01 78.2397 132.79 78.2397Z" fill="white"/>
<path d="M61.5003 164.58C59.2803 164.58 57.3403 163.78 55.8803 162.28C52.7903 159.09 52.8503 153.8 52.8703 153.21C52.8703 153.04 53.1303 131.25 52.8703 115.21C52.8003 110.7 54.2903 106.89 57.3103 103.89C62.7403 98.4997 71.7203 97.2797 76.1103 97.0097V93.4097C76.1103 92.0297 77.2303 90.9097 78.6103 90.9097C79.9903 90.9097 81.1103 92.0297 81.1103 93.4097V99.4397C81.1103 100.11 80.8403 100.76 80.3603 101.23C79.8803 101.7 79.2303 101.98 78.5603 101.94C78.4403 101.94 66.5403 101.76 60.8303 107.45C58.7903 109.48 57.8203 111.99 57.8703 115.13C58.1303 131.24 57.8703 153.1 57.8703 153.32C57.8503 154.32 58.0902 157.39 59.4802 158.81C60.0002 159.34 60.6403 159.59 61.5003 159.59C62.5703 159.59 63.0502 159.21 63.3502 158.88C64.5102 157.6 64.6303 154.74 64.5003 153.55C64.3603 152.18 65.3602 150.95 66.7302 150.81C68.0902 150.65 69.3302 151.67 69.4702 153.04C69.5302 153.64 69.9903 158.98 67.0603 162.24C65.6703 163.78 63.7503 164.6 61.5003 164.6V164.58Z" fill="white"/>
<path d="M66.9902 182.43C65.6102 182.43 64.4902 181.31 64.4902 179.93V119.69C64.4902 118.31 65.6102 117.19 66.9902 117.19C68.3702 117.19 69.4902 118.31 69.4902 119.69V179.93C69.4902 181.31 68.3702 182.43 66.9902 182.43Z" fill="white"/>
<path d="M109.26 164.58C107.01 164.58 105.09 163.76 103.7 162.22C100.77 158.97 101.22 153.62 101.29 153.02C101.43 151.65 102.67 150.63 104.03 150.79C105.4 150.93 106.4 152.16 106.26 153.53C106.17 154.48 106.18 157.51 107.42 158.87C107.72 159.2 108.19 159.57 109.26 159.57C110.13 159.57 110.77 159.32 111.29 158.79C112.71 157.33 112.91 154.13 112.89 153.35C112.89 153.09 112.63 131.23 112.89 115.12C112.94 111.98 111.97 109.47 109.93 107.43C105.17 102.7 95.5102 101.85 92.2102 101.93C91.5602 101.97 90.8902 101.69 90.4102 101.22C89.9302 100.75 89.6602 100.1 89.6602 99.4299V93.3999C89.6602 92.0199 90.7802 90.8999 92.1602 90.8999C93.5402 90.8999 94.6602 92.0199 94.6602 93.3999V96.9999C99.0502 97.2699 108.03 98.4899 113.46 103.88C116.48 106.88 117.97 110.69 117.9 115.2C117.64 131.24 117.9 153.02 117.9 153.24C117.92 153.79 117.98 159.08 114.89 162.27C113.43 163.77 111.49 164.57 109.27 164.57L109.26 164.58Z" fill="white"/>
<path d="M103.77 182.43C102.39 182.43 101.27 181.31 101.27 179.93V119.69C101.27 118.31 102.39 117.19 103.77 117.19C105.15 117.19 106.27 118.31 106.27 119.69V179.93C106.27 181.31 105.15 182.43 103.77 182.43Z" fill="white"/>
<path d="M85.2803 183.5C83.9003 183.5 82.7803 182.38 82.7803 181V154.88C82.7803 153.5 83.9003 152.38 85.2803 152.38C86.6603 152.38 87.7803 153.5 87.7803 154.88V181C87.7803 182.38 86.6603 183.5 85.2803 183.5Z" fill="white"/>
<path d="M13.7199 177.65C11.4999 177.65 9.55994 176.85 8.09994 175.35C5.00994 172.16 5.06999 166.87 5.08999 166.28C5.08999 166.11 5.34999 144.32 5.08999 128.28C5.01999 123.77 6.50999 119.96 9.52999 116.96C14.96 111.57 23.94 110.35 28.33 110.08V106.48C28.33 105.1 29.45 103.98 30.83 103.98C32.21 103.98 33.33 105.1 33.33 106.48V112.51C33.33 113.18 33.06 113.83 32.58 114.3C32.1 114.77 31.46 115.06 30.78 115.01C30.66 115.01 18.76 114.83 13.05 120.52C11.01 122.55 10.04 125.06 10.09 128.2C10.35 144.31 10.09 166.17 10.09 166.39C10.07 167.39 10.31 170.46 11.7 171.88C12.22 172.41 12.8599 172.66 13.7199 172.66C14.7899 172.66 15.27 172.28 15.57 171.95C16.73 170.67 16.8499 167.81 16.7199 166.62C16.5799 165.25 17.58 164.02 18.95 163.88C20.31 163.72 21.55 164.74 21.69 166.11C21.75 166.71 22.21 172.05 19.28 175.31C17.89 176.85 15.9699 177.67 13.7199 177.67V177.65Z" fill="white"/>
<path d="M55.2399 116.52C55.0099 116.52 54.7699 116.49 54.5399 116.42C49.4199 114.92 44.4799 115.02 44.4299 115.01C43.7499 115.06 43.1099 114.77 42.6299 114.3C42.1499 113.83 41.8799 113.19 41.8799 112.51V106.48C41.8799 105.1 42.9999 103.98 44.3799 103.98C45.7599 103.98 46.8799 105.1 46.8799 106.48V110.08C49.0899 110.22 52.4699 110.59 55.9499 111.61C57.2799 112 58.0299 113.39 57.6499 114.71C57.3299 115.8 56.3299 116.51 55.2499 116.51L55.2399 116.52Z" fill="white"/>
<path d="M37.5 182.43C36.12 182.43 35 181.31 35 179.93V169.55C35 168.17 36.12 167.05 37.5 167.05C38.88 167.05 40 168.17 40 169.55V179.93C40 181.31 38.88 182.43 37.5 182.43Z" fill="white"/>
<path d="M157 177.65C154.75 177.65 152.83 176.83 151.44 175.29C148.51 172.04 148.97 166.69 149.03 166.09C149.17 164.72 150.4 163.7 151.77 163.86C153.14 164 154.14 165.23 154 166.6C153.91 167.55 153.92 170.58 155.16 171.94C155.46 172.27 155.93 172.64 157 172.64C157.87 172.64 158.51 172.39 159.03 171.86C160.45 170.4 160.65 167.2 160.63 166.42C160.63 166.16 160.37 144.3 160.63 128.19C160.68 125.05 159.71 122.54 157.67 120.5C152.91 115.77 143.26 114.92 139.95 115C139.29 115.05 138.63 114.76 138.15 114.29C137.67 113.82 137.4 113.17 137.4 112.5V106.47C137.4 105.09 138.52 103.97 139.9 103.97C141.28 103.97 142.4 105.09 142.4 106.47V110.07C146.79 110.34 155.77 111.56 161.2 116.95C164.22 119.95 165.71 123.76 165.64 128.27C165.38 144.31 165.64 166.09 165.64 166.31C165.66 166.86 165.72 172.15 162.63 175.34C161.17 176.84 159.23 177.64 157.01 177.64L157 177.65Z" fill="white"/>
<path d="M115.48 116.52C114.4 116.52 113.4 115.81 113.08 114.72C112.69 113.39 113.45 112.01 114.78 111.62C118.27 110.6 121.64 110.22 123.85 110.09V106.49C123.85 105.11 124.97 103.99 126.35 103.99C127.73 103.99 128.85 105.11 128.85 106.49V112.52C128.85 113.19 128.58 113.84 128.1 114.31C127.62 114.78 127 115.07 126.3 115.02C126.25 115.02 121.27 114.94 116.19 116.43C115.96 116.5 115.72 116.53 115.49 116.53L115.48 116.52Z" fill="white"/>
<path d="M133.22 182.43C131.84 182.43 130.72 181.31 130.72 179.93V169.55C130.72 168.17 131.84 167.05 133.22 167.05C134.6 167.05 135.72 168.17 135.72 169.55V179.93C135.72 181.31 134.6 182.43 133.22 182.43Z" fill="white"/>
<path d="M95.8403 56.8699C94.8003 56.8699 93.7602 56.6199 92.8002 56.1099L86.0903 52.5799C85.6403 52.3499 85.1102 52.3499 84.6702 52.5799L77.9603 56.1099C75.7403 57.2799 73.1103 57.0899 71.0803 55.6099C69.0503 54.1399 68.0602 51.6899 68.4802 49.2199L69.7603 41.7499C69.8403 41.2499 69.6803 40.7499 69.3203 40.3999L63.8903 35.1099C62.1003 33.3599 61.4602 30.7999 62.2402 28.4199C63.0102 26.0399 65.0303 24.3399 67.5103 23.9799L75.0103 22.8899C75.5103 22.8199 75.9402 22.4999 76.1602 22.0499L79.5103 15.2499C80.6203 12.9999 82.8602 11.6099 85.3702 11.6099C87.8802 11.6099 90.1202 12.9999 91.2302 15.2499L94.5803 22.0499C94.8003 22.4999 95.2302 22.8099 95.7302 22.8899L103.23 23.9799C105.71 24.3399 107.73 26.0399 108.5 28.4199C109.27 30.7999 108.64 33.3699 106.85 35.1099L101.42 40.3999C101.06 40.7499 100.9 41.2599 100.98 41.7499L102.26 49.2199C102.68 51.6899 101.69 54.1299 99.6602 55.6099C98.5202 56.4399 97.1803 56.8599 95.8303 56.8599L95.8403 56.8699ZM85.3803 47.4099C86.4203 47.4099 87.4702 47.6599 88.4202 48.1599L95.1303 51.6899C95.8903 52.0899 96.5102 51.7399 96.7402 51.5699C96.9702 51.3999 97.4902 50.9199 97.3502 50.0699L96.0703 42.5999C95.7103 40.4799 96.4103 38.3199 97.9503 36.8199L103.38 31.5299C103.99 30.9299 103.86 30.2299 103.77 29.9599C103.68 29.6899 103.38 29.0399 102.54 28.9199L95.0402 27.8299C92.9102 27.5199 91.0702 26.1799 90.1202 24.2599L86.7703 17.4599C86.3903 16.6899 85.6903 16.6099 85.4003 16.6099C85.1103 16.6099 84.4103 16.6899 84.0303 17.4599L80.6802 24.2599C79.7302 26.1899 77.8903 27.5199 75.7603 27.8299L68.2603 28.9199C67.4103 29.0399 67.1103 29.6899 67.0303 29.9599C66.9403 30.2299 66.8002 30.9299 67.4202 31.5299L72.8502 36.8199C74.3902 38.3199 75.0902 40.4799 74.7302 42.5999L73.4503 50.0699C73.3103 50.9199 73.8303 51.3999 74.0603 51.5699C74.2903 51.7399 74.9102 52.0899 75.6702 51.6899L82.3803 48.1599C83.3303 47.6599 84.3702 47.4099 85.4202 47.4099H85.3803Z" fill="white"/>
</g>
</svg>
