<svg width="171" height="171" viewBox="0 0 171 171" fill="none" xmlns="http://www.w3.org/2000/svg">
<path d="M85.2002 170.08C132.166 170.08 170.24 132.006 170.24 85.04C170.24 38.0737 132.166 0 85.2002 0C38.2339 0 0.160156 38.0737 0.160156 85.04C0.160156 132.006 38.2339 170.08 85.2002 170.08Z" fill="#D9D9D9"/>
<path d="M136.35 77.4401L126.72 44.3301C130.41 43.0701 133.07 39.5801 133.07 35.4601C133.07 30.2901 128.86 26.0801 123.69 26.0801H46.6897C41.5197 26.0801 37.3097 30.2901 37.3097 35.4601C37.3097 39.5701 39.9697 43.0601 43.6597 44.3301L34.0297 77.4401C33.9597 77.6701 33.9297 77.9001 33.9297 78.1401V141.25C33.9297 142.63 35.0497 143.75 36.4297 143.75H133.93C135.31 143.75 136.43 142.63 136.43 141.25V78.1401C136.43 77.9001 136.4 77.6701 136.33 77.4401H136.35ZM42.3197 35.4601C42.3197 33.0501 44.2797 31.0801 46.6997 31.0801H123.7C126.11 31.0801 128.08 33.0401 128.08 35.4601C128.08 37.8801 126.12 39.8401 123.7 39.8401H46.6997C44.2897 39.8401 42.3197 37.8801 42.3197 35.4601ZM38.9397 78.4901L48.3197 46.2401H120.35L108.85 77.2601C108.75 77.5401 108.69 77.8301 108.69 78.1301V138.74H38.9397V78.4801V78.4901ZM131.44 138.75H126.44V82.4101C126.44 81.0301 125.32 79.9101 123.94 79.9101C122.56 79.9101 121.44 81.0301 121.44 82.4101V138.75H113.69V78.5901L123.65 51.7201L131.44 78.5001V138.76V138.75Z" fill="white"/>
<path d="M98.0392 98.7302V61.3402C98.0392 60.6102 97.7192 59.9102 97.1592 59.4402C96.5992 58.9602 95.8593 58.7602 95.1393 58.8802C94.4893 58.9902 79.1392 61.8202 78.0192 92.4602C77.9792 93.5602 78.6692 94.5602 79.7192 94.9202C79.7592 94.9302 82.9092 96.0502 84.8792 98.1802C84.1692 99.3302 83.7492 100.68 83.7492 102.12V122.47C83.7492 126.63 87.1392 130.02 91.2992 130.02C95.4592 130.02 98.8492 126.63 98.8492 122.47V102.12C98.8492 100.91 98.5492 99.7602 98.0392 98.7402V98.7302ZM83.0992 90.9002C84.0492 74.2802 89.5492 67.7502 93.0392 65.2602V94.7602C92.4792 94.6302 91.8992 94.5502 91.2992 94.5502C90.4092 94.5502 89.5593 94.7102 88.7593 95.0002C86.9793 92.9802 84.6792 91.6402 83.0992 90.8902V90.9002ZM93.8492 122.45C93.8492 123.86 92.7092 125 91.2992 125C89.8892 125 88.7492 123.86 88.7492 122.45V102.1C88.7492 100.69 89.8892 99.5502 91.2992 99.5502C92.7092 99.5502 93.8492 100.69 93.8492 102.1V122.45Z" fill="white"/>
<path d="M71.4794 66.0703C70.0994 66.0703 68.9794 67.1903 68.9794 68.5703V83.1003H64.9394V68.5703C64.9394 67.1903 63.8194 66.0703 62.4394 66.0703C61.0594 66.0703 59.9394 67.1903 59.9394 68.5703V83.1003H55.8994V68.5703C55.8994 67.1903 54.7794 66.0703 53.3994 66.0703C52.0194 66.0703 50.8994 67.1903 50.8994 68.5703V85.6003C50.8994 85.7003 50.9194 85.8003 50.9294 85.9003C50.9294 85.9503 50.9294 86.0003 50.9494 86.0603C50.9794 86.2503 51.0394 86.4303 51.1194 86.6103C51.1194 86.6103 51.1194 86.6203 51.1194 86.6303L56.0694 97.7603C55.1894 98.9903 54.6694 100.5 54.6694 102.12V122.47C54.6694 126.63 58.0594 130.02 62.2194 130.02C66.3794 130.02 69.7694 126.63 69.7694 122.47V102.12C69.7694 100.51 69.2594 99.0203 68.3894 97.7903L73.2894 87.3403C73.7194 86.8903 73.9894 86.2803 73.9894 85.6103V68.5803C73.9894 67.2003 72.8694 66.0803 71.4894 66.0803L71.4794 66.0703ZM67.3994 88.1003L64.2394 94.8403C63.5894 94.6603 62.9194 94.5603 62.2094 94.5603C61.4994 94.5603 60.8594 94.6603 60.2294 94.8303L57.2394 88.1003H67.3994ZM64.7594 122.45C64.7594 123.86 63.6194 125 62.2094 125C60.7994 125 59.6594 123.86 59.6594 122.45V102.1C59.6594 100.69 60.7994 99.5503 62.2094 99.5503C63.6194 99.5503 64.7594 100.69 64.7594 102.1V122.45Z" fill="white"/>
</svg>
