<svg width="171" height="171" viewBox="0 0 171 171" fill="none" xmlns="http://www.w3.org/2000/svg">
<mask id="mask0_1470_248" style="mask-type:luminance" maskUnits="userSpaceOnUse" x="0" y="0" width="171" height="171">
<path d="M85.4403 170.08C132.407 170.08 170.48 132.006 170.48 85.04C170.48 38.0737 132.407 0 85.4403 0C38.474 0 0.400391 38.0737 0.400391 85.04C0.400391 132.006 38.474 170.08 85.4403 170.08Z" fill="white"/>
</mask>
<g mask="url(#mask0_1470_248)">
<path d="M85.4403 170.08C132.407 170.08 170.48 132.006 170.48 85.04C170.48 38.0737 132.407 0 85.4403 0C38.474 0 0.400391 38.0737 0.400391 85.04C0.400391 132.006 38.474 170.08 85.4403 170.08Z" fill="#D9D9D9"/>
<path d="M129.041 76.8502C118.311 76.8502 109.581 68.1202 109.581 57.3902C109.581 46.6602 118.311 37.9302 129.041 37.9302C139.771 37.9302 148.501 46.6602 148.501 57.3902C148.501 68.1202 139.771 76.8502 129.041 76.8502ZM129.041 42.9402C121.071 42.9402 114.581 49.4202 114.581 57.4002C114.581 65.3802 121.071 71.8602 129.041 71.8602C137.011 71.8602 143.501 65.3702 143.501 57.4002C143.501 49.4302 137.011 42.9402 129.041 42.9402Z" fill="white"/>
<path d="M134.891 183.08H124.261C117.131 183.08 111.331 177.28 111.331 170.15V91.8904C111.331 86.7404 114.411 82.1204 119.021 80.0704V73.1304C119.021 71.7504 120.141 70.6304 121.521 70.6304C122.901 70.6304 124.021 71.7504 124.021 73.1304V81.8204C124.021 82.9504 123.271 83.9304 122.181 84.2304C118.731 85.1704 116.331 88.3204 116.331 91.8904V170.15C116.331 174.53 119.891 178.08 124.261 178.08H134.891C139.271 178.08 142.821 174.52 142.821 170.15V91.8904C142.821 88.4604 140.531 85.3504 137.241 84.3204C136.201 83.9904 135.491 83.0204 135.491 81.9204L135.531 73.1204C135.531 71.7404 136.651 70.6304 138.031 70.6304H138.041C139.421 70.6304 140.541 71.7604 140.531 73.1404L140.501 80.2404C144.941 82.3804 147.821 86.8504 147.821 91.8904V170.15C147.821 177.28 142.021 183.08 134.891 183.08Z" fill="white"/>
<path d="M91.5004 135.78C90.4604 135.78 89.4905 135.13 89.1405 134.09C88.6905 132.79 89.3804 131.36 90.6904 130.91L113 123.21C114.3 122.76 115.73 123.45 116.18 124.76C116.63 126.06 115.94 127.49 114.63 127.94L92.3204 135.64C92.0504 135.73 91.7804 135.78 91.5004 135.78Z" fill="white"/>
<path d="M83.8705 122.16C82.8305 122.16 81.8606 121.51 81.5106 120.47C81.0606 119.17 81.7506 117.74 83.0606 117.29L106.761 109.11L111.841 102.45C112.681 101.35 114.251 101.14 115.341 101.98C116.441 102.82 116.651 104.39 115.811 105.48L110.271 112.74C109.971 113.13 109.561 113.43 109.101 113.59L84.6905 122.02C84.4205 122.11 84.1505 122.16 83.8705 122.16Z" fill="white"/>
<path d="M129.891 166.22C124.081 166.22 119.351 161.49 119.351 155.68V95.5903C119.351 89.7803 124.081 85.0503 129.891 85.0503C135.701 85.0503 140.431 89.7803 140.431 95.5903V155.68C140.431 161.49 135.701 166.22 129.891 166.22ZM129.891 90.0403C126.831 90.0403 124.351 92.5303 124.351 95.5803V155.67C124.351 158.73 126.841 161.21 129.891 161.21C132.941 161.21 135.431 158.72 135.431 155.67V95.5803C135.431 92.5203 132.941 90.0403 129.891 90.0403Z" fill="white"/>
<path d="M41.8409 77.9303C31.1109 77.9303 22.3809 69.2003 22.3809 58.4703C22.3809 47.7403 31.1109 39.0103 41.8409 39.0103C52.5709 39.0103 61.3008 47.7403 61.3008 58.4703C61.3008 69.2003 52.5709 77.9303 41.8409 77.9303ZM41.8409 44.0203C33.8709 44.0203 27.3809 50.5103 27.3809 58.4803C27.3809 66.4503 33.8709 72.9403 41.8409 72.9403C49.8109 72.9403 56.3008 66.4603 56.3008 58.4803C56.3008 50.5003 49.8109 44.0203 41.8409 44.0203Z" fill="white"/>
<path d="M46.6205 184.16H35.9905C28.8605 184.16 23.0605 178.36 23.0605 171.23V92.97C23.0605 87.93 25.9406 83.46 30.3806 81.32L30.3505 74.22C30.3505 72.84 31.4606 71.72 32.8406 71.71H32.8505C34.2305 71.71 35.3405 72.82 35.3505 74.2L35.3906 83C35.3906 84.1 34.6806 85.07 33.6406 85.4C30.3606 86.43 28.0605 89.55 28.0605 92.97V171.23C28.0605 175.61 31.6205 179.16 35.9905 179.16H46.6205C51.0005 179.16 54.5505 175.6 54.5505 171.23V127.66C54.5505 126.28 55.6705 125.16 57.0505 125.16C58.4305 125.16 59.5505 126.28 59.5505 127.66V171.23C59.5505 178.36 53.7505 184.16 46.6205 184.16Z" fill="white"/>
<path d="M57.0513 106.47C55.6713 106.47 54.5513 105.35 54.5513 103.97V92.9602C54.5513 89.4002 52.1414 86.2502 48.7014 85.3002C47.6114 85.0002 46.8613 84.0102 46.8613 82.8902V74.2002C46.8613 72.8202 47.9813 71.7002 49.3613 71.7002C50.7413 71.7002 51.8613 72.8202 51.8613 74.2002V81.1402C56.4713 83.1902 59.5513 87.8102 59.5513 92.9602V103.97C59.5513 105.35 58.4313 106.47 57.0513 106.47Z" fill="white"/>
<path d="M85.5805 138.56C84.4805 138.56 83.3606 138.38 82.2706 138L55.4806 128.75C55.3206 128.69 55.1606 128.63 55.0006 128.56C52.9106 127.94 51.1206 126.71 49.8106 124.99L32.6206 102.46C30.9806 100.3 30.2706 97.6304 30.6306 94.9304C30.9906 92.2304 32.3806 89.8404 34.5406 88.1904C36.6906 86.5504 39.3706 85.8404 42.0706 86.2004C44.7706 86.5604 47.1606 87.9504 48.8106 90.1004L64.1306 110.18L88.9206 118.74C91.4806 119.62 93.5506 121.46 94.7406 123.91C95.9306 126.36 96.1005 129.12 95.2206 131.68C93.7705 135.89 89.8105 138.54 85.5905 138.54L85.5805 138.56ZM57.1106 124.03L83.9006 133.28C86.6006 134.21 89.5506 132.77 90.4906 130.07C91.4206 127.37 89.9806 124.41 87.2806 123.48L61.7806 114.68C61.3106 114.52 60.9106 114.22 60.6106 113.83L44.8306 93.1504C44.0006 92.0604 42.7806 91.3504 41.4006 91.1704C40.0206 90.9804 38.6606 91.3404 37.5706 92.1804C36.4806 93.0104 35.7706 94.2304 35.5906 95.6104C35.4006 96.9904 35.7606 98.3504 36.6006 99.4404L53.8006 121.97C54.4806 122.86 55.4206 123.49 56.5206 123.8C56.6206 123.83 56.7206 123.86 56.8106 123.9L56.9306 123.95C57.0006 123.98 57.0606 124.01 57.1306 124.03H57.1106Z" fill="white"/>
</g>
</svg>
