<svg width="171" height="171" viewBox="0 0 171 171" fill="none" xmlns="http://www.w3.org/2000/svg">
<path d="M85.6797 170.08C132.646 170.08 170.72 132.006 170.72 85.04C170.72 38.0737 132.646 0 85.6797 0C38.7134 0 0.639648 38.0737 0.639648 85.04C0.639648 132.006 38.7134 170.08 85.6797 170.08Z" fill="white"/>
<mask id="mask0_1470_264" style="mask-type:luminance" maskUnits="userSpaceOnUse" x="0" y="0" width="171" height="171">
<path d="M85.6797 170.08C132.646 170.08 170.72 132.006 170.72 85.04C170.72 38.0737 132.646 0 85.6797 0C38.7134 0 0.639648 38.0737 0.639648 85.04C0.639648 132.006 38.7134 170.08 85.6797 170.08Z" fill="white"/>
</mask>
<g mask="url(#mask0_1470_264)">
<path d="M85.6797 170.08C132.646 170.08 170.72 132.006 170.72 85.04C170.72 38.0737 132.646 0 85.6797 0C38.7134 0 0.639648 38.0737 0.639648 85.04C0.639648 132.006 38.7134 170.08 85.6797 170.08Z" fill="#D9D9D9"/>
<path d="M83.9207 59.8901C72.6007 59.8901 63.3906 50.6801 63.3906 39.3601C63.3906 28.0401 72.6007 18.8301 83.9207 18.8301C95.2407 18.8301 104.451 28.0401 104.451 39.3601C104.451 50.6801 95.2407 59.8901 83.9207 59.8901ZM83.9207 23.8301C75.3607 23.8301 68.3906 30.8001 68.3906 39.3601C68.3906 47.9201 75.3607 54.8901 83.9207 54.8901C92.4807 54.8901 99.4506 47.9201 99.4506 39.3601C99.4506 30.8001 92.4807 23.8301 83.9207 23.8301Z" fill="white"/>
<path d="M65.54 108.36C64.16 108.36 63.04 107.24 63.04 105.86V83.27C63.04 81.89 64.16 80.77 65.54 80.77C66.92 80.77 68.04 81.89 68.04 83.27V105.86C68.04 107.24 66.92 108.36 65.54 108.36Z" fill="white"/>
<path d="M105.29 109.06C103.91 109.06 102.79 107.94 102.79 106.56V83.2803C102.79 81.9003 103.91 80.7803 105.29 80.7803C106.67 80.7803 107.79 81.9003 107.79 83.2803V106.56C107.79 107.94 106.67 109.06 105.29 109.06Z" fill="white"/>
<path d="M35.4902 118C35.1802 118 34.8702 117.99 34.5502 117.96C31.8202 117.72 29.3502 116.43 27.6002 114.34C25.8502 112.25 25.0202 109.59 25.2702 106.86C25.5202 104.13 26.8002 101.66 28.8902 99.9102L49.9602 81.9302C51.0102 81.0402 52.5902 81.1602 53.4802 82.2102C54.3802 83.2602 54.2501 84.8402 53.2001 85.7302L32.1102 103.73C31.0202 104.64 30.3702 105.9 30.2402 107.3C30.1102 108.7 30.5403 110.06 31.4303 111.13C32.3203 112.2 33.5902 112.86 34.9902 112.98C36.4002 113.11 37.7501 112.68 38.8201 111.79L63.9303 90.8002C64.9903 89.9102 66.5701 90.0502 67.4501 91.1102C68.3401 92.1702 68.2002 93.7502 67.1402 94.6302L42.0302 115.62C40.1802 117.17 37.8802 118 35.4902 118Z" fill="white"/>
<path d="M51.5906 86.3303C50.8506 86.3303 50.1206 86.0003 49.6306 85.3803C48.7706 84.3003 48.9607 82.7303 50.0407 81.8703C53.6107 79.0403 54.2707 73.9603 54.2807 73.9103C54.2907 73.8103 54.3106 73.7103 54.3306 73.6203C58.6006 55.9603 75.7907 53.6703 84.2907 54.9303C85.6607 55.1303 86.6007 56.4003 86.4007 57.7703C86.2006 59.1303 84.9306 60.0803 83.5706 59.8803C82.7506 59.7603 63.5406 57.2103 59.2306 74.6803C59.0706 75.8303 57.9807 81.9803 53.1607 85.8003C52.7007 86.1603 52.1506 86.3403 51.6106 86.3403L51.5906 86.3303Z" fill="white"/>
<path d="M135.34 118C133.02 118 130.69 117.22 128.78 115.62L103.67 94.6302C102.61 93.7402 102.47 92.1702 103.36 91.1102C104.25 90.0502 105.82 89.9102 106.88 90.8002L131.99 111.79C133.06 112.68 134.42 113.11 135.82 112.98C137.22 112.86 138.48 112.2 139.38 111.13C140.27 110.06 140.7 108.7 140.57 107.3C140.45 105.9 139.79 104.64 138.72 103.74L117.61 85.7302C116.56 84.8302 116.44 83.2602 117.33 82.2102C118.22 81.1602 119.81 81.0402 120.85 81.9302L141.94 99.9302C144.01 101.66 145.3 104.13 145.54 106.86C145.78 109.59 144.96 112.25 143.21 114.34C141.19 116.76 138.27 118.01 135.34 118.01V118Z" fill="white"/>
<path d="M119.23 86.3303C118.69 86.3303 118.14 86.1503 117.68 85.7903C112.85 81.9703 111.77 75.8203 111.6 74.6703C107.27 57.1203 88.0803 59.7503 87.2603 59.8703C85.8803 60.0703 84.6204 59.1303 84.4204 57.7603C84.2204 56.3903 85.1604 55.1203 86.5304 54.9203C95.0304 53.6703 112.23 55.9503 116.49 73.6203C116.51 73.7203 116.53 73.8203 116.54 73.9203C116.54 73.9603 117.2 79.0403 120.77 81.8703C121.85 82.7303 122.04 84.3003 121.18 85.3803C120.69 86.0003 119.96 86.3303 119.22 86.3303H119.23Z" fill="white"/>
<path d="M62.8901 151.25C61.4101 151.25 59.92 150.99 58.48 150.47C55.23 149.3 52.6401 146.94 51.1801 143.83C48.1601 137.39 50.9401 129.69 57.3801 126.67L109.34 102.28C112.45 100.82 115.95 100.66 119.2 101.83C122.45 103 125.04 105.36 126.5 108.47C127.96 111.58 128.12 115.08 126.94 118.33C125.77 121.58 123.41 124.17 120.3 125.63L68.34 150.02C66.61 150.83 64.7501 151.24 62.8901 151.24V151.25ZM114.79 106.06C113.65 106.06 112.52 106.31 111.46 106.81L59.5001 131.2C55.5601 133.05 53.85 137.77 55.71 141.71C56.6 143.61 58.1901 145.05 60.1801 145.77C62.1701 146.49 64.32 146.39 66.22 145.5L118.18 121.11C120.08 120.22 121.52 118.63 122.24 116.64C122.96 114.65 122.86 112.5 121.97 110.6C121.08 108.7 119.49 107.26 117.5 106.54C116.62 106.22 115.7 106.06 114.79 106.06Z" fill="white"/>
<path d="M60.4604 130.07C60.1004 130.07 59.7405 129.99 59.4005 129.83L50.4704 125.64C47.3604 124.18 45.0004 121.59 43.8304 118.34C42.6604 115.09 42.8105 111.59 44.2705 108.48C45.7305 105.37 48.3204 103.01 51.5704 101.84C54.8204 100.67 58.3205 100.83 61.4305 102.29L86.0205 114.27C87.2605 114.88 87.7805 116.37 87.1705 117.61C86.5605 118.85 85.0704 119.37 83.8304 118.76L59.2705 106.8C57.4005 105.92 55.2605 105.83 53.2705 106.55C51.2805 107.27 49.6905 108.71 48.8005 110.61C47.9105 112.51 47.8105 114.65 48.5305 116.65C49.2505 118.64 50.6904 120.23 52.5904 121.12L61.5205 125.31C62.7705 125.9 63.3104 127.39 62.7204 128.64C62.3004 129.55 61.3904 130.08 60.4604 130.08V130.07Z" fill="white"/>
<path d="M107.88 151.25C106.02 151.25 104.161 150.84 102.431 150.03L85.8404 142.24C84.5904 141.65 84.0505 140.16 84.6405 138.91C85.2205 137.66 86.7104 137.12 87.9704 137.71L104.561 145.5C106.461 146.39 108.6 146.49 110.6 145.77C112.59 145.05 114.18 143.61 115.07 141.71C116.92 137.77 115.221 133.05 111.281 131.2L109.281 130.26C108.031 129.67 107.49 128.18 108.08 126.93C108.67 125.68 110.161 125.14 111.411 125.73L113.411 126.67C119.851 129.69 122.63 137.39 119.61 143.83C118.15 146.94 115.561 149.3 112.311 150.47C110.871 150.99 109.381 151.25 107.901 151.25H107.88Z" fill="white"/>
<path d="M125.28 56.6802C118.81 56.6802 113.56 51.4302 113.56 44.9802C113.56 38.5302 118.81 33.2802 125.26 33.2802C125.4 33.2802 125.54 33.2802 125.68 33.2802C126.85 27.1402 132.259 22.4902 138.729 22.4902C143.459 22.4902 147.739 24.9802 150.099 28.9202C151.419 28.4202 152.82 28.1602 154.25 28.1602C160.66 28.1602 165.889 33.3402 165.949 39.7402C168.429 41.4102 169.959 44.2102 169.959 47.2802C169.959 52.3002 165.879 56.3902 160.849 56.3902L125.27 56.6902L125.28 56.6802ZM125.26 38.2702C121.56 38.2702 118.56 41.2802 118.56 44.9702C118.56 48.6602 121.57 51.6702 125.26 51.6702L160.839 51.3702C163.119 51.3702 164.969 49.5302 164.969 47.2602C164.969 45.5902 163.97 44.0902 162.41 43.4602C161.35 43.0302 160.72 41.9302 160.88 40.8002C160.93 40.4202 160.959 40.1202 160.959 39.8402C160.959 36.1402 157.95 33.1402 154.26 33.1402C152.87 33.1402 151.54 33.5702 150.4 34.3702C149.75 34.8302 148.93 34.9502 148.18 34.7102C147.43 34.4602 146.839 33.8802 146.589 33.1302C145.459 29.7502 142.3 27.4802 138.74 27.4802C134.17 27.4802 130.459 31.2002 130.459 35.7602L130.479 36.0802C130.509 36.8902 130.15 37.6602 129.5 38.1502C128.86 38.6402 128.02 38.7902 127.24 38.5602C126.6 38.3602 125.94 38.2602 125.27 38.2602L125.26 38.2702Z" fill="white"/>
<path d="M5.23975 77.1002C-1.23025 77.1002 -6.49023 71.8502 -6.49023 65.4002C-6.49023 58.9502 -0.960229 53.4702 5.63977 53.7002C6.80977 47.5602 12.2197 42.9102 18.6897 42.9102C23.4197 42.9102 27.6998 45.4002 30.0598 49.3402C31.3798 48.8402 32.7797 48.5802 34.2097 48.5802C40.6197 48.5802 45.8498 53.7602 45.9098 60.1602C48.3898 61.8302 49.9198 64.6302 49.9198 67.7002C49.9198 72.7202 45.8398 76.8002 40.8098 76.8002L5.22974 77.1002H5.23975ZM5.21973 58.6902C1.51973 58.6902 -1.49023 61.7002 -1.49023 65.3902C-1.49023 69.0802 1.51973 72.0902 5.21973 72.0902L40.7998 71.7902C43.0798 71.7902 44.9298 69.9502 44.9298 67.6902C44.9298 66.0202 43.9298 64.5202 42.3798 63.8902C41.3198 63.4602 40.6897 62.3602 40.8497 61.2202C40.8997 60.8402 40.9298 60.5402 40.9298 60.2602C40.9298 56.5602 37.9197 53.5602 34.2197 53.5602C32.8297 53.5602 31.4997 53.9902 30.3597 54.7902C29.7097 55.2502 28.8898 55.3702 28.1398 55.1302C27.3898 54.8802 26.7998 54.3002 26.5498 53.5502C25.4198 50.1702 22.2597 47.9002 18.6997 47.9002C14.1297 47.9002 10.4198 51.6202 10.4198 56.1802L10.4397 56.5002C10.4697 57.3102 10.1097 58.0802 9.45972 58.5702C8.81972 59.0602 7.97971 59.2102 7.19971 58.9702C6.55971 58.7702 5.89974 58.6702 5.22974 58.6702L5.21973 58.6902Z" fill="white"/>
</g>
</svg>
