<svg width="171" height="171" viewBox="0 0 171 171" fill="none" xmlns="http://www.w3.org/2000/svg">
<path d="M85.04 170.08C132.006 170.08 170.08 132.006 170.08 85.04C170.08 38.0737 132.006 0 85.04 0C38.0737 0 0 38.0737 0 85.04C0 132.006 38.0737 170.08 85.04 170.08Z" fill="#7CC5E5"/>
<path d="M66.7598 150.76C65.2298 150.76 63.6798 150.5 62.1898 149.94L44.2898 143.34C44.1898 143.3 44.0898 143.26 43.9898 143.21C33.2098 137.55 24.9698 127.63 21.3898 115.99L13.9298 91.7601C13.0898 89.0201 14.3998 86.0301 16.9898 84.8001L34.5598 76.4801C42.3398 72.7901 50.5998 70.2501 59.0998 68.9201L78.1598 65.9401C81.0698 65.4801 83.9298 67.2701 84.7998 70.0901L92.2198 94.1801C95.7998 105.82 94.5698 118.65 88.8398 129.4C88.7898 129.5 88.7298 129.59 88.6698 129.68L77.5798 145.2C75.0398 148.76 70.9598 150.76 66.7498 150.76H66.7598ZM46.1698 138.71L63.9098 145.25C67.3998 146.53 71.3498 145.32 73.5098 142.29L84.4998 126.9C89.5398 117.35 90.6098 105.97 87.4398 95.6501L80.0198 71.5701C79.8798 71.1101 79.3998 70.8101 78.9298 70.8901L59.8698 73.8701C51.8398 75.1201 44.0398 77.5301 36.6898 81.0101L19.1198 89.3301C18.7598 89.5001 18.5798 89.9201 18.6898 90.3001L26.1498 114.53C29.3298 124.85 36.6198 133.66 46.1598 138.72L46.1698 138.71Z" fill="#04104A"/>
<path d="M33.7102 113.77C33.4102 113.77 33.1102 113.72 32.8202 113.6C31.5302 113.11 30.8902 111.67 31.3702 110.39C31.4702 110.13 33.8002 104.1 39.1402 102.49C42.3502 101.52 45.7802 102.32 49.3402 104.88C50.4602 105.69 50.7202 107.25 49.9102 108.37C49.1002 109.49 47.5402 109.75 46.4202 108.94C44.2002 107.34 42.2402 106.79 40.6002 107.27C38.1302 108.01 36.4702 111.05 36.0402 112.17C35.6602 113.16 34.7102 113.77 33.7002 113.77H33.7102Z" fill="#04104A"/>
<path d="M65.2494 104.07C64.9594 104.07 64.6794 104.02 64.3894 103.92C63.0894 103.45 62.4294 102.01 62.8994 100.71C64.3994 96.6 66.7894 94 69.9894 93C75.3194 91.33 80.6394 95 80.8594 95.16C81.9894 95.95 82.2594 97.51 81.4694 98.64C80.6794 99.77 79.1194 100.04 77.9894 99.25C77.0094 98.57 73.9194 96.98 71.4694 97.77C69.8394 98.29 68.5294 99.85 67.5994 102.42C67.2294 103.43 66.2694 104.06 65.2494 104.06V104.07Z" fill="#04104A"/>
<path d="M58.9697 127.87C52.2397 127.87 47.6397 123.04 45.9497 119.96C45.2797 118.75 45.7297 117.23 46.9397 116.56C48.1497 115.9 49.6597 116.33 50.3297 117.54C50.5097 117.86 54.4797 124.71 62.0697 122.37C69.8197 119.98 69.4897 112.05 69.4697 111.72C69.3997 110.34 70.4497 109.16 71.8297 109.09C73.2297 109.01 74.3897 110.07 74.4597 111.45C74.6897 115.65 72.6997 124.33 63.5397 127.15C61.9297 127.65 60.4097 127.86 58.9797 127.86L58.9697 127.87Z" fill="#04104A"/>
<path d="M103.319 116.2C99.1195 116.2 95.0295 114.2 92.4895 110.64L90.4395 107.77C89.6395 106.65 89.8995 105.08 91.0195 104.28C92.1395 103.48 93.7095 103.74 94.5095 104.86L96.5595 107.73C98.7195 110.76 102.669 111.97 106.159 110.69L123.899 104.15C133.439 99.0902 140.729 90.2902 143.899 79.9602L151.359 55.7302C151.479 55.3502 151.289 54.9302 150.929 54.7602L133.359 46.4402C126.009 42.9602 118.219 40.5602 110.189 39.3002L91.1295 36.3202C90.6495 36.2502 90.1795 36.5402 90.0395 37.0002L82.6195 61.0902C81.8595 63.5602 81.3295 66.1202 81.0495 68.6902C80.8995 70.0602 79.6695 71.0502 78.2895 70.9002C76.9195 70.7502 75.9295 69.5102 76.0795 68.1402C76.3995 65.2602 76.9895 62.3902 77.8395 59.6202L85.2595 35.5402C86.1295 32.7202 88.9795 30.9402 91.8995 31.3902L110.959 34.3702C119.469 35.7002 127.719 38.2402 135.499 41.9302L153.069 50.2502C155.659 51.4802 156.979 54.4702 156.129 57.2102L148.669 81.4402C145.089 93.0802 136.849 103 126.069 108.66C125.969 108.71 125.869 108.75 125.769 108.79L107.869 115.39C106.379 115.94 104.829 116.21 103.299 116.21L103.319 116.2Z" fill="#04104A"/>
<path d="M98.7697 69.6802C97.8597 69.6802 96.9597 69.5502 96.0797 69.2802C90.7397 67.6702 88.3997 61.6302 88.3097 61.3802C87.8197 60.0902 88.4697 58.6502 89.7697 58.1602C91.0597 57.6802 92.4997 58.3202 92.9897 59.6102C93.4197 60.7202 95.0797 63.7702 97.5497 64.5002C99.1897 64.9902 101.15 64.4302 103.37 62.8302C104.49 62.0202 106.05 62.2802 106.86 63.4002C107.67 64.5202 107.41 66.0802 106.29 66.8902C103.71 68.7402 101.19 69.6802 98.7797 69.6802H98.7697Z" fill="#04104A"/>
<path d="M129.85 79.2201C128.9 79.2201 127.92 79.0901 126.93 78.7901C123.73 77.7801 121.34 75.1901 119.84 71.0801C119.37 69.7801 120.03 68.3501 121.33 67.8701C122.63 67.4001 124.06 68.0601 124.54 69.3601C125.48 71.9401 126.79 73.5001 128.43 74.0201C130.9 74.8001 134.03 73.1701 134.93 72.5401C136.06 71.7501 137.62 72.0201 138.41 73.1501C139.2 74.2801 138.93 75.8401 137.8 76.6301C137.62 76.7601 134.05 79.2301 129.85 79.2301V79.2201Z" fill="#04104A"/>
<path d="M119.029 96.16C119.029 96.16 118.939 96.16 118.889 96.16C117.509 96.09 116.449 94.91 116.529 93.53C116.539 93.2 116.799 85.24 109.129 82.88C101.539 80.54 97.559 87.42 97.389 87.72C96.719 88.92 95.199 89.35 93.989 88.68C92.789 88.01 92.349 86.5 93.009 85.3C95.059 81.57 101.379 75.27 110.589 78.11C119.739 80.93 121.739 89.61 121.509 93.81C121.439 95.14 120.339 96.18 119.019 96.18L119.029 96.16Z" fill="#04104A"/>
</svg>
