<svg width="171" height="171" viewBox="0 0 171 171" fill="none" xmlns="http://www.w3.org/2000/svg">
<path d="M85.5205 170.08C132.487 170.08 170.561 132.006 170.561 85.04C170.561 38.0737 132.487 0 85.5205 0C38.5542 0 0.480469 38.0737 0.480469 85.04C0.480469 132.006 38.5542 170.08 85.5205 170.08Z" fill="#7CC5E5"/>
<path d="M70.7606 120.05C67.1806 120.05 63.5906 118.69 60.8606 115.96C55.4006 110.5 55.4006 101.62 60.8606 96.1604C66.3206 90.7004 75.2007 90.7004 80.6607 96.1604C86.1207 101.62 86.1207 110.5 80.6607 115.96C77.9307 118.69 74.3506 120.05 70.7606 120.05ZM70.7606 97.0604C68.4606 97.0604 66.1507 97.9404 64.4007 99.6904C60.8907 103.2 60.8907 108.91 64.4007 112.42C67.9107 115.93 73.6206 115.93 77.1306 112.42C80.6406 108.91 80.6406 103.2 77.1306 99.6904C75.3806 97.9404 73.0707 97.0604 70.7707 97.0604H70.7606Z" fill="#04104A"/>
<path d="M83.1306 106.79C82.4906 106.79 81.8506 106.55 81.3606 106.06C80.3806 105.08 80.3806 103.5 81.3606 102.52L143.111 40.7703L136.041 33.7003L74.2907 95.4503C73.3107 96.4303 71.7306 96.4303 70.7506 95.4503C69.7706 94.4703 69.7706 92.8903 70.7506 91.9103L134.271 28.3903C135.251 27.4103 136.831 27.4103 137.811 28.3903L148.421 39.0003C149.401 39.9803 149.401 41.5603 148.421 42.5403L84.9006 106.06C84.4106 106.55 83.7706 106.79 83.1306 106.79Z" fill="#04104A"/>
<path d="M143.59 53.8703C142.95 53.8703 142.31 53.6303 141.82 53.1403L123.671 34.9903C122.691 34.0103 122.691 32.4303 123.671 31.4503C124.651 30.4703 126.23 30.4703 127.21 31.4503L145.36 49.6003C146.34 50.5803 146.34 52.1603 145.36 53.1403C144.87 53.6303 144.23 53.8703 143.59 53.8703Z" fill="#04104A"/>
<path d="M137.231 60.2405C136.591 60.2405 135.951 60.0004 135.461 59.5104L117.311 41.3605C116.331 40.3805 116.331 38.8004 117.311 37.8204C118.291 36.8404 119.871 36.8404 120.851 37.8204L139.001 55.9705C139.981 56.9505 139.981 58.5304 139.001 59.5104C138.511 60.0004 137.871 60.2405 137.231 60.2405Z" fill="#04104A"/>
<path d="M58.0311 136.6C57.3911 136.6 56.7511 136.36 56.2611 135.87L40.9411 120.55C39.9611 119.57 39.9611 117.99 40.9411 117.01C41.9211 116.03 43.5011 116.03 44.4811 117.01L59.8012 132.33C60.7812 133.31 60.7812 134.89 59.8012 135.87C59.3112 136.36 58.6711 136.6 58.0311 136.6Z" fill="#04104A"/>
<path d="M60.6807 127C60.0407 127 59.4007 126.76 58.9107 126.27L50.5407 117.9C49.5607 116.92 49.5607 115.34 50.5407 114.36C51.5207 113.38 53.1006 113.38 54.0806 114.36L62.4506 122.73C63.4306 123.71 63.4306 125.29 62.4506 126.27C61.9606 126.76 61.3207 127 60.6807 127Z" fill="#04104A"/>
<path d="M65.0207 154.43C60.6707 154.43 55.9907 153.33 51.0307 151.14C39.2207 145.91 29.9307 136.58 24.8807 124.86C21.0907 116.06 20.8908 108.24 24.3008 101.64C30.3308 89.9701 45.3907 86.6401 46.0307 86.5001C46.0707 86.5001 46.1207 86.4801 46.1607 86.4801C46.2407 86.4601 56.5307 84.5301 66.5307 69.7401C76.2007 55.4401 91.9807 60.4201 98.9707 65.0501C100.121 65.8101 100.441 67.3601 99.6707 68.5101C98.9107 69.6601 97.3607 69.9801 96.2107 69.2101C95.5607 68.7801 79.9808 58.7801 70.6707 72.5301C59.7507 88.6701 48.2907 91.1601 47.0407 91.3901C46.2907 91.5601 33.5407 94.6201 28.7307 103.95C26.0507 109.16 26.3007 115.52 29.4707 122.88C34.0207 133.44 42.4008 141.85 53.0608 146.56C60.7508 149.96 67.4707 150.33 73.0207 147.64C82.3307 143.13 85.7808 131.37 86.0608 130.34C86.3508 128.81 89.0107 117.53 104.911 106.77C118.731 97.4201 108.671 81.8901 108.231 81.2301C107.471 80.0801 107.781 78.5301 108.931 77.7701C110.081 77.0101 111.631 77.3201 112.391 78.4701C117.021 85.4601 122.001 101.24 107.701 110.91C92.9207 120.91 90.9807 131.2 90.9607 131.3C90.9507 131.36 90.9307 131.44 90.9207 131.51C90.7707 132.12 87.0107 146.39 75.2207 152.12C72.0607 153.66 68.6507 154.42 65.0107 154.42L65.0207 154.43Z" fill="#04104A"/>
<path d="M52.8604 52.8301C49.0004 52.8301 45.8604 49.6901 45.8604 45.8301C45.8604 41.9701 49.0004 38.8301 52.8604 38.8301C56.7204 38.8301 59.8604 41.9701 59.8604 45.8301C59.8604 49.6901 56.7204 52.8301 52.8604 52.8301ZM52.8604 42.8401C51.2104 42.8401 49.8604 44.1801 49.8604 45.8401C49.8604 47.5001 51.2004 48.8401 52.8604 48.8401C54.5204 48.8401 55.8604 47.5001 55.8604 45.8401C55.8604 44.1801 54.5204 42.8401 52.8604 42.8401Z" fill="#04104A"/>
<path d="M72.0703 52.8301C68.2103 52.8301 65.0703 49.6901 65.0703 45.8301C65.0703 41.9701 68.2103 38.8301 72.0703 38.8301C75.9303 38.8301 79.0703 41.9701 79.0703 45.8301C79.0703 49.6901 75.9303 52.8301 72.0703 52.8301ZM72.0703 42.8401C70.4203 42.8401 69.0703 44.1801 69.0703 45.8401C69.0703 47.5001 70.4103 48.8401 72.0703 48.8401C73.7303 48.8401 75.0703 47.5001 75.0703 45.8401C75.0703 44.1801 73.7303 42.8401 72.0703 42.8401Z" fill="#04104A"/>
<path d="M57.7208 49.4702C57.5808 49.4702 57.4309 49.4502 57.2909 49.4202C56.2109 49.1802 55.5308 48.1102 55.7708 47.0402L61.1508 22.7102C61.3408 21.8602 62.0609 21.2202 62.9309 21.1502L82.2808 19.5102C82.9208 19.4602 83.5408 19.7102 83.9508 20.1902C84.3708 20.6702 84.5308 21.3202 84.4008 21.9402L79.0208 46.2702C78.7808 47.3502 77.7108 48.0302 76.6408 47.7902C75.5608 47.5502 74.8808 46.4802 75.1208 45.4102L79.9209 23.7302L64.7508 25.0102L59.6809 47.9102C59.4709 48.8402 58.6508 49.4802 57.7308 49.4802L57.7208 49.4702Z" fill="#04104A"/>
<path d="M133.851 113.42C129.991 113.42 126.851 110.28 126.851 106.42C126.851 102.56 129.991 99.4204 133.851 99.4204C137.711 99.4204 140.851 102.56 140.851 106.42C140.851 110.28 137.711 113.42 133.851 113.42ZM133.851 103.43C132.201 103.43 130.851 104.77 130.851 106.43C130.851 108.09 132.191 109.43 133.851 109.43C135.511 109.43 136.851 108.09 136.851 106.43C136.851 104.77 135.511 103.43 133.851 103.43Z" fill="#04104A"/>
<path d="M138.851 108.43C138.711 108.43 138.561 108.42 138.421 108.38C137.341 108.14 136.661 107.07 136.901 106L142.281 81.6702C142.521 80.5902 143.591 79.9102 144.661 80.1502C145.741 80.3902 146.421 81.4602 146.181 82.5302L140.801 106.86C140.591 107.79 139.771 108.43 138.851 108.43Z" fill="#04104A"/>
</svg>
