<svg width="171" height="171" viewBox="0 0 171 171" fill="none" xmlns="http://www.w3.org/2000/svg">
<mask id="mask0_1470_62" style="mask-type:luminance" maskUnits="userSpaceOnUse" x="0" y="0" width="171" height="171">
<path d="M85.6005 170.08C132.567 170.08 170.641 132.006 170.641 85.04C170.641 38.0737 132.567 0 85.6005 0C38.6342 0 0.560547 38.0737 0.560547 85.04C0.560547 132.006 38.6342 170.08 85.6005 170.08Z" fill="white"/>
</mask>
<g mask="url(#mask0_1470_62)">
<path d="M85.6005 170.08C132.567 170.08 170.641 132.006 170.641 85.04C170.641 38.0737 132.567 0 85.6005 0C38.6342 0 0.560547 38.0737 0.560547 85.04C0.560547 132.006 38.6342 170.08 85.6005 170.08Z" fill="#7CC5E5"/>
<path d="M202.67 150.63C201.98 150.63 201.3 150.35 200.81 149.8L121.31 60.9299C118.38 57.6599 114.48 55.8599 110.31 55.8599C106.14 55.8599 102.24 57.6599 99.3097 60.9299L19.8097 149.8C18.8897 150.83 17.3097 150.92 16.2797 150C15.2497 149.08 15.1596 147.5 16.0796 146.47L95.5796 57.5999C99.4696 53.2499 104.7 50.8599 110.31 50.8599C115.92 50.8599 121.15 53.2499 125.04 57.5999L204.54 146.47C205.46 147.5 205.37 149.08 204.34 150C203.86 150.43 203.27 150.64 202.67 150.64V150.63Z" fill="#04104A"/>
<path d="M-5.85993 120.75C-6.44993 120.75 -7.04997 120.54 -7.52997 120.11C-8.55997 119.19 -8.64992 117.61 -7.72992 116.58L29.3801 75.0999C33.2701 70.7499 38.5 68.3599 44.11 68.3599C49.72 68.3599 54.95 70.7499 58.84 75.0999L71.2401 88.9599C72.16 89.9899 72.0701 91.5699 71.0401 92.4899C70.0101 93.4099 68.4301 93.3199 67.5101 92.2899L55.11 78.4299C52.18 75.1599 48.28 73.3599 44.11 73.3599C39.94 73.3599 36.03 75.1599 33.11 78.4299L-3.99994 119.91C-4.48994 120.46 -5.17993 120.74 -5.85993 120.74V120.75Z" fill="#04104A"/>
<path d="M129.07 89.0798C125.12 89.0798 121.151 87.1898 118.271 83.8198C113.841 78.6298 112.511 77.0698 103.121 83.9098C100.011 86.1798 96.6605 87.0398 93.1505 86.4598C85.7605 85.2498 80.5005 77.9198 80.2805 77.6098C79.4805 76.4798 79.7505 74.9198 80.8805 74.1298C82.0105 73.3298 83.5605 73.5998 84.3605 74.7198C84.4205 74.8098 88.6705 80.6698 93.9805 81.5298C96.1405 81.8798 98.1706 81.3398 100.181 79.8698C110.491 72.3598 115.2 72.5098 122.08 80.5798C124.38 83.2798 127.64 84.5698 130.59 83.9298C133.55 83.2898 135.82 80.7198 136.97 76.6998C137.35 75.3698 138.731 74.5998 140.061 74.9798C141.391 75.3598 142.161 76.7398 141.781 78.0698C139.511 85.9998 134.461 88.2098 131.661 88.8198C130.811 88.9998 129.95 89.0898 129.08 89.0898L129.07 89.0798Z" fill="#04104A"/>
<path d="M55.9296 103.3C52.9296 103.3 49.9995 101.87 47.2095 99.0198L46.4595 98.2498C42.7495 94.4198 41.7496 93.3898 35.8596 97.7698C32.6796 100.13 29.8896 99.9698 28.1096 99.4198C22.3296 97.6198 19.4095 89.4498 19.0895 88.5198C18.6495 87.2098 19.3496 85.7898 20.6496 85.3498C21.9596 84.9098 23.3695 85.5998 23.8195 86.9098C24.4095 88.6398 26.7496 93.7698 29.5996 94.6498C30.2296 94.8398 31.2596 94.9698 32.8796 93.7598C41.6396 87.2498 45.3696 89.9398 50.0596 94.7698L50.7896 95.5198C52.9096 97.6798 54.8496 98.5698 56.7596 98.2298C60.5596 97.5598 63.8495 92.0498 64.6995 90.1798C65.2695 88.9198 66.7496 88.3698 68.0096 88.9398C69.2696 89.5098 69.8196 90.9898 69.2496 92.2498C68.7996 93.2398 64.6696 101.92 57.6296 103.16C57.0696 103.26 56.5095 103.31 55.9495 103.31L55.9296 103.3Z" fill="#04104A"/>
<path d="M37.6505 74.67C36.3605 74.67 35.2605 73.67 35.1605 72.36C35.0905 71.5 35.0605 70.61 35.0605 69.73C35.0605 52.5 48.0505 38.48 64.0105 38.48C78.2705 38.48 90.5905 49.95 92.6505 65.16C92.8405 66.53 91.8805 67.79 90.5105 67.97C89.1305 68.16 87.8804 67.2 87.7004 65.83C85.9704 53.09 75.7905 43.48 64.0105 43.48C50.8005 43.48 40.0605 55.26 40.0605 69.73C40.0605 70.48 40.0905 71.24 40.1505 71.97C40.2605 73.35 39.2305 74.55 37.8505 74.66C37.7805 74.66 37.7205 74.66 37.6505 74.66V74.67Z" fill="#04104A"/>
<path d="M101.76 182.67H66.1701C64.9001 182.67 63.7401 181.97 63.1501 180.84C62.5601 179.72 62.6401 178.36 63.3601 177.32L67.8001 170.87C66.9501 170.61 66.2201 170.01 65.7901 169.2C65.2001 168.08 65.2801 166.73 66.0001 165.68L70.3101 159.42H68.8101C67.5401 159.42 66.3801 158.72 65.7901 157.6C65.2001 156.48 65.2801 155.13 66.0001 154.08L72.0201 145.34H72.0101C70.7401 145.34 69.5801 144.64 68.9901 143.52C68.4001 142.39 68.48 141.04 69.2 140L81.1601 122.62C81.8001 121.69 82.85 121.14 83.97 121.14C85.09 121.14 86.1401 121.69 86.7801 122.62L98.7401 140C99.4601 141.05 99.54 142.4 98.95 143.52C98.36 144.64 97.2001 145.34 95.9301 145.34H95.9201L101.93 154.08C102.65 155.13 102.73 156.48 102.14 157.6C101.55 158.72 100.39 159.42 99.1201 159.42H97.6201L101.93 165.68C102.65 166.73 102.73 168.08 102.14 169.2C101.71 170.02 100.98 170.61 100.13 170.87L104.57 177.32C105.29 178.37 105.37 179.72 104.78 180.84C104.19 181.97 103.03 182.67 101.76 182.67ZM67.2901 178.67H100.64L96.3101 172.37C95.5901 171.32 95.51 169.97 96.1 168.85C96.53 168.03 97.2601 167.44 98.1101 167.18L93.69 160.77C92.97 159.72 92.89 158.37 93.48 157.25C94.07 156.12 95.2301 155.42 96.5001 155.42H98.0001L91.9901 146.68C91.2701 145.63 91.1901 144.28 91.7801 143.16C92.3701 142.03 93.5301 141.33 94.8001 141.33H94.8101L83.96 125.57L73.1101 141.33H73.1201C74.3901 141.33 75.5501 142.03 76.1401 143.16C76.7301 144.28 76.6501 145.64 75.9301 146.68L69.9201 155.42H71.4201C72.6901 155.42 73.85 156.12 74.44 157.25C75.03 158.37 74.95 159.73 74.23 160.77L69.8101 167.18C70.6601 167.44 71.39 168.04 71.82 168.85C72.41 169.98 72.3301 171.33 71.6101 172.37L67.2801 178.66L67.2901 178.67Z" fill="#04104A"/>
<path d="M142.19 168.6C141.09 168.6 140.19 167.7 140.19 166.6C140.19 165.77 140.69 165.06 141.41 164.76L136.41 157.5C135.66 156.42 135.58 155.02 136.19 153.85C136.67 152.93 137.52 152.29 138.49 152.06L133.561 144.9C132.811 143.82 132.73 142.42 133.34 141.25C133.95 140.08 135.15 139.36 136.47 139.36H138.421L131.71 129.61C130.96 128.53 130.88 127.13 131.49 125.96C132.1 124.79 133.3 124.07 134.62 124.07H134.96L122.86 106.5L110.76 124.07H111.1C112.42 124.07 113.61 124.79 114.23 125.96C114.84 127.12 114.76 128.52 114.01 129.61L107.301 139.36H109.25C110.57 139.36 111.76 140.08 112.38 141.25C112.99 142.42 112.91 143.81 112.16 144.9L107.23 152.06C108.21 152.29 109.05 152.94 109.53 153.85C110.14 155.02 110.061 156.41 109.311 157.5L103.08 166.64C102.46 167.55 101.211 167.79 100.301 167.17C99.3905 166.55 99.1505 165.3 99.7705 164.39L105.58 155.87C104.6 155.64 103.75 154.99 103.27 154.08C102.66 152.91 102.74 151.52 103.48 150.43L108.34 143.37H106.39C105.07 143.37 103.88 142.65 103.26 141.48C102.65 140.32 102.73 138.92 103.48 137.83L110.19 128.08H109.85C108.53 128.08 107.34 127.36 106.72 126.19C106.11 125.02 106.19 123.63 106.94 122.54L119.931 103.68C120.591 102.72 121.68 102.15 122.84 102.15C124 102.15 125.09 102.72 125.75 103.68L138.74 122.54C139.49 123.62 139.57 125.02 138.96 126.19C138.35 127.36 137.15 128.08 135.83 128.08H135.49L142.2 137.83C142.95 138.91 143.031 140.31 142.421 141.48C141.811 142.65 140.611 143.37 139.291 143.37H137.34L142.2 150.43C142.95 151.52 143.031 152.91 142.421 154.08C141.941 155 141.09 155.64 140.12 155.87L145.07 163.07C145.82 164.15 145.901 165.55 145.291 166.72C144.681 167.89 143.48 168.61 142.16 168.61L142.19 168.6Z" fill="#04104A"/>
</g>
</svg>
