<svg width="171" height="171" viewBox="0 0 171 171" fill="none" xmlns="http://www.w3.org/2000/svg">
<path d="M85.1201 170.08C132.086 170.08 170.16 132.006 170.16 85.04C170.16 38.0737 132.086 0 85.1201 0C38.1538 0 0.0800781 38.0737 0.0800781 85.04C0.0800781 132.006 38.1538 170.08 85.1201 170.08Z" fill="#7CC5E5"/>
<path d="M136.83 72.6902C135.48 72.6902 134.36 71.6102 134.33 70.2502C133.69 43.7502 111.6 22.1902 85.0797 22.1902C58.5597 22.1902 36.5097 43.2702 35.8297 70.1902C35.7897 71.5702 34.6597 72.6502 33.2697 72.6302C31.8897 72.6002 30.7997 71.4502 30.8297 70.0702C31.1897 55.8702 36.9897 42.5702 47.1697 32.6402C57.3697 22.6802 70.8297 17.2002 85.0797 17.2002C99.3297 17.2002 112.82 22.6902 123.01 32.6602C133.19 42.6102 138.99 55.9202 139.33 70.1402C139.36 71.5202 138.27 72.6702 136.89 72.7002C136.87 72.7002 136.85 72.7002 136.83 72.7002V72.6902Z" fill="#04104A"/>
<path d="M55.9499 85.1201C54.5699 85.1201 53.4499 84.0001 53.4499 82.6201C53.4499 75.9701 48.0399 70.5601 41.3899 70.5601C38.9699 70.5601 36.6399 71.2701 34.6499 72.6201C33.5099 73.3901 31.9499 73.0901 31.1799 71.9501C30.4099 70.8101 30.7099 69.2501 31.8499 68.4801C34.6699 66.5701 37.9699 65.5601 41.3899 65.5601C50.7999 65.5601 58.4499 73.2201 58.4499 82.6201C58.4499 84.0001 57.3299 85.1201 55.9499 85.1201Z" fill="#04104A"/>
<path d="M85.0799 85.1201C83.6999 85.1201 82.5799 84.0001 82.5799 82.6201C82.5799 75.9701 77.1699 70.5601 70.5199 70.5601C63.8699 70.5601 58.46 75.9701 58.46 82.6201C58.46 84.0001 57.34 85.1201 55.96 85.1201C54.58 85.1201 53.46 84.0001 53.46 82.6201C53.46 73.2101 61.1199 65.5601 70.5199 65.5601C79.9199 65.5601 87.5799 73.2201 87.5799 82.6201C87.5799 84.0001 86.4599 85.1201 85.0799 85.1201Z" fill="#04104A"/>
<path d="M114.2 85.1201C112.82 85.1201 111.7 84.0001 111.7 82.6201C111.7 75.9701 106.29 70.5601 99.6401 70.5601C92.9901 70.5601 87.5801 75.9701 87.5801 82.6201C87.5801 84.0001 86.4601 85.1201 85.0801 85.1201C83.7001 85.1201 82.5801 84.0001 82.5801 82.6201C82.5801 73.2101 90.2401 65.5601 99.6401 65.5601C109.04 65.5601 116.7 73.2201 116.7 82.6201C116.7 84.0001 115.58 85.1201 114.2 85.1201Z" fill="#04104A"/>
<path d="M114.2 85.1201C112.82 85.1201 111.7 84.0001 111.7 82.6201C111.7 73.2101 119.36 65.5601 128.77 65.5601C132.15 65.5601 135.42 66.5501 138.22 68.4101C139.37 69.1801 139.68 70.7301 138.92 71.8801C138.15 73.0301 136.6 73.3401 135.45 72.5701C133.47 71.2501 131.16 70.5601 128.77 70.5601C122.12 70.5601 116.7 75.9701 116.7 82.6201C116.7 84.0001 115.58 85.1201 114.2 85.1201Z" fill="#04104A"/>
<path d="M56.1 82.9499C54.77 82.9499 53.66 81.8999 53.6 80.5599C51.98 44.2299 82.19 18.8299 83.47 17.7699C84.53 16.8899 86.11 17.0399 86.99 18.0999C87.87 19.1599 87.72 20.7399 86.66 21.6199C86.36 21.8699 57.09 46.5299 58.59 80.3399C58.65 81.7199 57.58 82.8899 56.2 82.9499C56.16 82.9499 56.12 82.9499 56.09 82.9499H56.1Z" fill="#04104A"/>
<path d="M114.46 82.9499C114.46 82.9499 114.38 82.9499 114.35 82.9499C112.97 82.8899 111.9 81.7199 111.96 80.3399C113.47 46.5299 84.1899 21.8699 83.8899 21.6199C82.8299 20.7399 82.6799 19.1599 83.5599 18.0999C84.4399 17.0399 86.0199 16.8899 87.0799 17.7699C88.3699 18.8299 118.58 44.2299 116.95 80.5599C116.89 81.8999 115.78 82.9499 114.45 82.9499H114.46Z" fill="#04104A"/>
<path d="M85.0804 63.0499C85.0804 63.0499 85.0604 63.0499 85.0504 63.0499C83.9504 63.0299 83.0604 62.1199 83.0804 61.0199L83.5304 32.3399C83.5504 31.2399 84.4704 30.3399 85.5604 30.3699C86.6604 30.3899 87.5504 31.2999 87.5304 32.3999L87.0804 61.0799C87.0604 62.1699 86.1704 63.0499 85.0804 63.0499Z" fill="#04104A"/>
<path d="M71.7799 112.34C71.1299 112.34 70.4699 112.09 69.9799 111.58L31.4399 71.6799C30.4799 70.6899 30.5099 69.0999 31.4999 68.1499C32.4899 67.1899 34.0799 67.2199 35.0399 68.2099L73.5799 108.1C74.5399 109.09 74.5099 110.68 73.5199 111.64C73.0299 112.11 72.4099 112.34 71.7799 112.34Z" fill="#04104A"/>
<path d="M97.5404 112.34C96.9004 112.34 96.2704 112.1 95.7804 111.62C94.8004 110.65 94.7904 109.07 95.7604 108.08L135.22 68.19C136.19 67.21 137.77 67.2 138.76 68.17C139.75 69.14 139.75 70.72 138.78 71.71L99.3204 111.6C98.8304 112.09 98.1904 112.34 97.5404 112.34Z" fill="#04104A"/>
<path d="M84.4403 112.34C79.1303 112.34 74.8203 108.02 74.8203 102.72C74.8203 97.4201 79.1403 93.1001 84.4403 93.1001C89.7403 93.1001 94.0603 97.4201 94.0603 102.72C94.0603 108.02 89.7403 112.34 84.4403 112.34ZM84.4403 98.0901C81.8903 98.0901 79.8203 100.16 79.8203 102.71C79.8203 105.26 81.8903 107.33 84.4403 107.33C86.9903 107.33 89.0603 105.26 89.0603 102.71C89.0603 100.16 86.9903 98.0901 84.4403 98.0901Z" fill="#04104A"/>
<path d="M72.6798 156.35C71.9498 156.35 71.1998 156.22 70.4698 155.96C67.1498 154.74 65.4399 151.04 66.6599 147.72L74.5399 126.33C74.6399 126.07 74.7499 125.81 74.8799 125.57C74.8399 125.24 74.8199 124.91 74.8199 124.58V119.01H62.4099C59.1999 119.01 56.5898 116.4 56.5898 113.19C56.5898 109.98 59.1999 107.37 62.4099 107.37H106.48C109.69 107.37 112.3 109.98 112.3 113.19C112.3 116.4 109.69 119.01 106.48 119.01H94.0699V124.58C94.0699 124.89 94.0499 125.2 94.0099 125.52C94.1499 125.78 94.2799 126.06 94.3799 126.34L102.26 147.73C103.48 151.05 101.78 154.75 98.4598 155.97C95.1398 157.19 91.4398 155.49 90.2198 152.17L84.4698 136.55L78.7198 152.17C77.7698 154.76 75.2999 156.37 72.6898 156.37L72.6798 156.35ZM62.4099 112.34C61.9599 112.34 61.5898 112.72 61.5898 113.16C61.5898 113.6 61.9699 113.98 62.4099 113.98H77.3199C78.6999 113.98 79.8199 115.1 79.8199 116.48V124.55C79.8199 124.82 79.8598 125.1 79.9398 125.39C80.1598 126.17 79.9798 127.01 79.4698 127.64C79.3698 127.77 79.2898 127.9 79.2398 128.04L71.3598 149.43C71.0998 150.15 71.4799 150.99 72.1999 151.25C72.5499 151.38 72.9398 151.36 73.2798 151.2C73.6298 151.04 73.8898 150.76 74.0198 150.41L81.7599 129.39C82.1199 128.41 83.0598 127.75 84.1098 127.75H84.8199C85.8699 127.75 86.7999 128.4 87.1699 129.39L94.9099 150.41C95.1799 151.13 96.0099 151.52 96.7299 151.25C97.4499 150.99 97.8399 150.15 97.5699 149.43L89.6898 128.04C89.6399 127.9 89.5599 127.76 89.4499 127.63C88.9199 127 88.7399 126.16 88.9499 125.37C89.0299 125.09 89.0699 124.81 89.0699 124.55V116.48C89.0699 115.1 90.1899 113.98 91.5699 113.98H106.48C106.93 113.98 107.3 113.6 107.3 113.16C107.3 112.72 106.92 112.34 106.48 112.34H62.4099Z" fill="#04104A"/>
<path d="M77.3201 121.22C76.7601 121.22 76.2101 120.99 75.8101 120.54C75.0801 119.71 75.1701 118.45 76.0001 117.72C79.0701 115.03 76.9701 111.3 76.7201 110.88C76.1501 109.94 76.4502 108.71 77.3902 108.14C78.3302 107.57 79.5501 107.86 80.1301 108.8C81.6001 111.19 83.1802 116.75 78.6402 120.73C78.2601 121.06 77.7901 121.23 77.3201 121.23V121.22Z" fill="#04104A"/>
<path d="M91.5699 121.22C91.0299 121.22 90.4999 121.01 90.0999 120.58C87.7799 118.08 86.7799 115.58 87.1399 113.16C87.6099 109.95 90.2499 108.3 90.5499 108.12C91.4999 107.56 92.7299 107.87 93.2899 108.82C93.8499 109.77 93.5399 110.98 92.5999 111.55C92.5399 111.59 91.2699 112.42 91.0899 113.76C90.8999 115.21 92.0399 116.79 93.0299 117.86C93.7799 118.67 93.7299 119.94 92.9199 120.69C92.5399 121.05 92.0499 121.22 91.5599 121.22H91.5699Z" fill="#04104A"/>
</svg>
