<svg width="53" height="52" viewBox="0 0 53 52" fill="none" xmlns="http://www.w3.org/2000/svg">
<ellipse cx="26.5" cy="26" rx="26.5" ry="26" fill="white"/>
<path d="M31.12 32.8425L25.2625 26.985V18.9H27.7375V25.9537L32.8525 31.0687L31.12 32.8425ZM25.2625 15.1875V11.475H27.7375V15.1875H25.2625ZM36.8125 26.7375V24.2625H40.525V26.7375H36.8125ZM25.2625 39.525V35.8125H27.7375V39.525H25.2625ZM12.475 26.7375V24.2625H16.1875V26.7375H12.475ZM26.511 42C24.2358 42 22.0977 41.5669 20.0966 40.7006C18.0955 39.8344 16.3456 38.6519 14.8469 37.1531C13.3481 35.6544 12.1656 33.9034 11.2994 31.9003C10.4331 29.8972 10 27.7569 10 25.4794C10 23.2019 10.4331 21.0615 11.2994 19.0584C12.1656 17.0553 13.3481 15.3112 14.8469 13.8263C16.3456 12.3412 18.0966 11.1656 20.0997 10.2994C22.1028 9.43312 24.2431 9 26.5206 9C28.7981 9 30.9385 9.43312 32.9416 10.2994C34.9447 11.1656 36.6887 12.3412 38.1737 13.8263C39.6587 15.3112 40.8344 17.0575 41.7006 19.065C42.5669 21.0725 43 23.2138 43 25.489C43 27.7642 42.5669 29.9023 41.7006 31.9034C40.8344 33.9045 39.6587 35.6518 38.1737 37.1455C36.6887 38.6392 34.9425 39.8217 32.935 40.693C30.9275 41.5643 28.7862 42 26.511 42ZM26.5206 39.525C30.4119 39.525 33.7187 38.1569 36.4412 35.4206C39.1637 32.6844 40.525 29.3706 40.525 25.4794C40.525 21.5881 39.1663 18.2812 36.449 15.5587C33.7316 12.8362 30.4153 11.475 26.5 11.475C22.6225 11.475 19.3156 12.8337 16.5794 15.551C13.8431 18.2684 12.475 21.5847 12.475 25.5C12.475 29.3775 13.8431 32.6844 16.5794 35.4206C19.3156 38.1569 22.6294 39.525 26.5206 39.525Z" fill="black"/>
</svg>
