<svg width="48" height="45" viewBox="0 0 48 45" fill="none" xmlns="http://www.w3.org/2000/svg">
<path d="M24.3583 44.1845L21.9452 41.9871C17.786 38.1466 14.3526 34.8308 11.6452 32.0395C8.93774 29.2482 6.77964 26.7538 5.17087 24.5564C3.5621 22.359 2.43401 20.3695 1.78658 18.5878C1.13914 16.8062 0.81543 15.0047 0.81543 13.1834C0.81543 9.62009 2.00239 6.64074 4.3763 4.24538C6.75021 1.85002 9.68326 0.652344 13.1755 0.652344C15.412 0.652344 17.4819 1.18685 19.3849 2.25585C21.288 3.32485 22.9458 4.86897 24.3583 6.8882C26.0064 4.75019 27.7525 3.17638 29.5966 2.16676C31.4408 1.15715 33.4224 0.652344 35.5412 0.652344C39.0334 0.652344 41.9665 1.85002 44.3404 4.24538C46.7143 6.64074 47.9013 9.62009 47.9013 13.1834C47.9013 15.0047 47.5776 16.8062 46.9301 18.5878C46.2827 20.3695 45.1546 22.359 43.5458 24.5564C41.9371 26.7538 39.779 29.2482 37.0715 32.0395C34.3641 34.8308 30.9307 38.1466 26.7715 41.9871L24.3583 44.1845Z" fill="#C51314"/>
</svg>
