<svg width="139" height="139" viewBox="0 0 139 139" fill="none" xmlns="http://www.w3.org/2000/svg">
<circle cx="69.5" cy="69.5" r="69.5" fill="#7CC5E5"/>
<path d="M108.749 71.5291H34.6323C32.1 71.5291 30 70.688 30 69.6737C30 68.6595 32.1 67.8184 34.6323 67.8184H108.749C111.282 67.8184 113.382 68.6595 113.382 69.6737C113.382 70.688 111.282 71.5291 108.749 71.5291Z" fill="white"/>
<path d="M68.7533 113.84C67.8269 113.84 67.0586 111.754 67.0586 109.238V35.6022C67.0586 33.0864 67.8269 31 68.7533 31C69.6798 31 70.4481 33.0864 70.4481 35.6022V109.238C70.4481 111.754 69.6798 113.84 68.7533 113.84Z" fill="white"/>
</svg>
