<svg width="66" height="66" viewBox="0 0 66 66" fill="none" xmlns="http://www.w3.org/2000/svg">
<path d="M39.5312 40.975C38.7062 38.6375 37.0104 36.7583 34.4438 35.3375C31.8771 33.9167 28.2792 33.2063 23.65 33.2063C19.0208 33.2063 15.4229 33.9167 12.8562 35.3375C10.2896 36.7583 8.57083 38.6375 7.7 40.975H39.5312ZM2.75 45.1C2.75 42.9 3.15104 40.826 3.95312 38.8781C4.75521 36.9302 6.01562 35.2344 7.73438 33.7906C9.45312 32.3469 11.6302 31.201 14.2656 30.3531C16.901 29.5052 20.0406 29.0813 23.6844 29.0813C27.3281 29.0813 30.4563 29.5052 33.0688 30.3531C35.6813 31.201 37.8469 32.3469 39.5656 33.7906C41.2844 35.2344 42.5448 36.9302 43.3469 38.8781C44.149 40.826 44.55 42.9 44.55 45.1H2.75ZM2.75 53.9V49.775H44.55V53.9H2.75ZM48.675 63.25V59.125H54.5875L58.5063 19.25H31.1438L30.6625 15.125H44.7563V2.75H48.8813V15.125H63.25L58.6438 59.125C58.5063 60.3167 58.0135 61.3021 57.1656 62.0813C56.3177 62.8604 55.2521 63.25 53.9688 63.25H48.675ZM4.8125 63.25C4.2625 63.25 3.78125 63.0438 3.36875 62.6313C2.95625 62.2188 2.75 61.7375 2.75 61.1875V59.125H44.55V61.1875C44.55 61.7375 44.3438 62.2188 43.9313 62.6313C43.5187 63.0438 43.0375 63.25 42.4875 63.25H4.8125Z" fill="black"/>
</svg>
