<svg width="139" height="139" viewBox="0 0 139 139" fill="none" xmlns="http://www.w3.org/2000/svg">
<circle cx="69.5" cy="69.5" r="69.5" fill="#7CC5E5"/>
<path d="M76.5312 69.975C75.7062 67.6375 74.0104 65.7583 71.4438 64.3375C68.8771 62.9167 65.2792 62.2063 60.65 62.2063C56.0208 62.2063 52.4229 62.9167 49.8562 64.3375C47.2896 65.7583 45.5708 67.6375 44.7 69.975H76.5312ZM39.75 74.1C39.75 71.9 40.151 69.826 40.9531 67.8781C41.7552 65.9302 43.0156 64.2344 44.7344 62.7906C46.4531 61.3469 48.6302 60.201 51.2656 59.3531C53.901 58.5052 57.0406 58.0813 60.6844 58.0813C64.3281 58.0813 67.4563 58.5052 70.0688 59.3531C72.6813 60.201 74.8469 61.3469 76.5656 62.7906C78.2844 64.2344 79.5448 65.9302 80.3469 67.8781C81.149 69.826 81.55 71.9 81.55 74.1H39.75ZM39.75 82.9V78.775H81.55V82.9H39.75ZM85.675 92.25V88.125H91.5875L95.5063 48.25H68.1438L67.6625 44.125H81.7563V31.75H85.8813V44.125H100.25L95.6438 88.125C95.5063 89.3167 95.0135 90.3021 94.1656 91.0813C93.3177 91.8604 92.2521 92.25 90.9688 92.25H85.675ZM41.8125 92.25C41.2625 92.25 40.7812 92.0438 40.3688 91.6313C39.9563 91.2188 39.75 90.7375 39.75 90.1875V88.125H81.55V90.1875C81.55 90.7375 81.3438 91.2188 80.9313 91.6313C80.5187 92.0438 80.0375 92.25 79.4875 92.25H41.8125Z" fill="white"/>
</svg>
