<svg width="72" height="80" viewBox="0 0 72 80" fill="none" xmlns="http://www.w3.org/2000/svg">
<path d="M36 47.833C34.8903 47.833 33.9601 47.4577 33.2094 46.707C32.4587 45.9563 32.0833 45.0261 32.0833 43.9163C32.0833 42.8066 32.4587 41.8764 33.2094 41.1257C33.9601 40.375 34.8903 39.9997 36 39.9997C37.1097 39.9997 38.0399 40.375 38.7906 41.1257C39.5413 41.8764 39.9167 42.8066 39.9167 43.9163C39.9167 45.0261 39.5413 45.9563 38.7906 46.707C38.0399 47.4577 37.1097 47.833 36 47.833ZM20.3333 47.833C19.2236 47.833 18.2934 47.4577 17.5427 46.707C16.792 45.9563 16.4167 45.0261 16.4167 43.9163C16.4167 42.8066 16.792 41.8764 17.5427 41.1257C18.2934 40.375 19.2236 39.9997 20.3333 39.9997C21.4431 39.9997 22.3733 40.375 23.124 41.1257C23.8747 41.8764 24.25 42.8066 24.25 43.9163C24.25 45.0261 23.8747 45.9563 23.124 46.707C22.3733 47.4577 21.4431 47.833 20.3333 47.833ZM51.6667 47.833C50.5569 47.833 49.6267 47.4577 48.876 46.707C48.1254 45.9563 47.75 45.0261 47.75 43.9163C47.75 42.8066 48.1254 41.8764 48.876 41.1257C49.6267 40.375 50.5569 39.9997 51.6667 39.9997C52.7764 39.9997 53.7066 40.375 54.4573 41.1257C55.208 41.8764 55.5833 42.8066 55.5833 43.9163C55.5833 45.0261 55.208 45.9563 54.4573 46.707C53.7066 47.4577 52.7764 47.833 51.6667 47.833ZM36 63.4997C34.8903 63.4997 33.9601 63.1243 33.2094 62.3736C32.4587 61.6229 32.0833 60.6927 32.0833 59.583C32.0833 58.4733 32.4587 57.5431 33.2094 56.7924C33.9601 56.0417 34.8903 55.6663 36 55.6663C37.1097 55.6663 38.0399 56.0417 38.7906 56.7924C39.5413 57.5431 39.9167 58.4733 39.9167 59.583C39.9167 60.6927 39.5413 61.6229 38.7906 62.3736C38.0399 63.1243 37.1097 63.4997 36 63.4997ZM20.3333 63.4997C19.2236 63.4997 18.2934 63.1243 17.5427 62.3736C16.792 61.6229 16.4167 60.6927 16.4167 59.583C16.4167 58.4733 16.792 57.5431 17.5427 56.7924C18.2934 56.0417 19.2236 55.6663 20.3333 55.6663C21.4431 55.6663 22.3733 56.0417 23.124 56.7924C23.8747 57.5431 24.25 58.4733 24.25 59.583C24.25 60.6927 23.8747 61.6229 23.124 62.3736C22.3733 63.1243 21.4431 63.4997 20.3333 63.4997ZM51.6667 63.4997C50.5569 63.4997 49.6267 63.1243 48.876 62.3736C48.1254 61.6229 47.75 60.6927 47.75 59.583C47.75 58.4733 48.1254 57.5431 48.876 56.7924C49.6267 56.0417 50.5569 55.6663 51.6667 55.6663C52.7764 55.6663 53.7066 56.0417 54.4573 56.7924C55.208 57.5431 55.5833 58.4733 55.5833 59.583C55.5833 60.6927 55.208 61.6229 54.4573 62.3736C53.7066 63.1243 52.7764 63.4997 51.6667 63.4997ZM6.625 79.1663C5.05833 79.1663 3.6875 78.5788 2.5125 77.4038C1.3375 76.2288 0.75 74.858 0.75 73.2913V12.583C0.75 11.0163 1.3375 9.64551 2.5125 8.47051C3.6875 7.29551 5.05833 6.70801 6.625 6.70801H12.9896V0.833008H19.3542V6.70801H52.6458V0.833008H59.0104V6.70801H65.375C66.9417 6.70801 68.3125 7.29551 69.4875 8.47051C70.6625 9.64551 71.25 11.0163 71.25 12.583V73.2913C71.25 74.858 70.6625 76.2288 69.4875 77.4038C68.3125 78.5788 66.9417 79.1663 65.375 79.1663H6.625ZM6.625 73.2913H65.375V31.1872H6.625V73.2913Z" fill="black"/>
</svg>
