<svg width="107" height="107" viewBox="0 0 107 107" fill="none" xmlns="http://www.w3.org/2000/svg">
<path d="M39.0098 89.1663H91.3952C93.2342 89.1663 94.8086 88.5115 96.1182 87.2019C97.4279 85.8923 98.0827 84.3179 98.0827 82.4788V69.7726H39.0098V89.1663ZM8.91602 37.2268H32.3223V17.833H15.6035C13.7645 17.833 12.1901 18.4878 10.8805 19.7975C9.57083 21.1071 8.91602 22.6814 8.91602 24.5205V37.2268ZM8.91602 63.1966H32.3223V43.9143H8.91602V63.1966ZM15.6035 89.1663H32.3223V69.7726H8.91602V82.4788C8.91602 84.3179 9.57083 85.8923 10.8805 87.2019C12.1901 88.5115 13.7645 89.1663 15.6035 89.1663ZM39.0098 63.1966H98.0827V43.9143H39.0098V63.1966ZM39.0098 37.2268H98.0827V24.5205C98.0827 22.6814 97.4279 21.1071 96.1182 19.7975C94.8086 18.4878 93.2342 17.833 91.3952 17.833H39.0098V37.2268Z" fill="black"/>
</svg>
