<svg width="96" height="96" viewBox="0 0 96 96" fill="none" xmlns="http://www.w3.org/2000/svg">
<path d="M61.3 69.1375L44.4375 52.275V29H51.5625V49.3062L66.2875 64.0312L61.3 69.1375ZM44.4375 18.3125V7.625H51.5625V18.3125H44.4375ZM77.6875 51.5625V44.4375H88.375V51.5625H77.6875ZM44.4375 88.375V77.6875H51.5625V88.375H44.4375ZM7.625 51.5625V44.4375H18.3125V51.5625H7.625ZM48.0316 95.5C41.4818 95.5 35.3266 94.2531 29.566 91.7594C23.8053 89.2656 18.7677 85.8615 14.4531 81.5469C10.1385 77.2323 6.73438 72.1917 4.24062 66.4251C1.74687 60.6586 0.5 54.4971 0.5 47.9406C0.5 41.3841 1.74687 35.2226 4.24062 29.4561C6.73438 23.6895 10.1385 18.6687 14.4531 14.3938C18.7677 10.1187 23.8083 6.73438 29.5749 4.24062C35.3414 1.74687 41.5029 0.5 48.0594 0.5C54.6159 0.5 60.7774 1.74687 66.5439 4.24062C72.3105 6.73438 77.3312 10.1187 81.6062 14.3938C85.8812 18.6687 89.2656 23.6958 91.7594 29.475C94.2531 35.2542 95.5 41.4186 95.5 47.9684C95.5 54.5182 94.2531 60.6734 91.7594 66.434C89.2656 72.1947 85.8812 77.225 81.6062 81.525C77.3312 85.825 72.3042 89.2292 66.525 91.7375C60.7458 94.2458 54.5814 95.5 48.0316 95.5ZM48.0594 88.375C59.2615 88.375 68.7812 84.4365 76.6188 76.5594C84.4562 68.6823 88.375 59.1427 88.375 47.9406C88.375 36.7385 84.4637 27.2188 76.6411 19.3813C68.8184 11.5437 59.2714 7.625 48 7.625C36.8375 7.625 27.3177 11.5363 19.4406 19.3589C11.5635 27.1816 7.625 36.7286 7.625 48C7.625 59.1625 11.5635 68.6823 19.4406 76.5594C27.3177 84.4365 36.8573 88.375 48.0594 88.375Z" fill="black"/>
</svg>
