<svg width="41" height="39" viewBox="0 0 41 39" fill="none" xmlns="http://www.w3.org/2000/svg">
<path d="M26.24 28.1775L18.9625 21.255V11.7H22.0375V20.0362L28.3925 26.0812L26.24 28.1775ZM18.9625 7.3125V2.925H22.0375V7.3125H18.9625ZM33.3125 20.9625V18.0375H37.925V20.9625H33.3125ZM18.9625 36.075V31.6875H22.0375V36.075H18.9625ZM3.075 20.9625V18.0375H7.6875V20.9625H3.075ZM20.5136 39C17.6869 39 15.0304 38.4881 12.5443 37.4644C10.0581 36.4406 7.88396 35.0431 6.02187 33.2719C4.15979 31.5006 2.69062 29.4313 1.61437 27.064C0.538125 24.6967 0 22.1672 0 19.4756C0 16.784 0.538125 14.2545 1.61437 11.8872C2.69062 9.51992 4.15979 7.45875 6.02187 5.70375C7.88396 3.94875 10.0594 2.55937 12.5481 1.53562C15.0368 0.511875 17.696 0 20.5256 0C23.3553 0 26.0144 0.511875 28.5031 1.53562C30.9919 2.55937 33.1587 3.94875 35.0037 5.70375C36.8487 7.45875 38.3094 9.5225 39.3856 11.895C40.4619 14.2675 41 16.7982 41 19.487C41 22.1759 40.4619 24.7028 39.3856 27.0677C38.3094 29.4326 36.8487 31.4976 35.0037 33.2629C33.1587 35.0282 30.9892 36.4257 28.495 37.4554C26.0008 38.4851 23.3404 39 20.5136 39ZM20.5256 36.075C25.3602 36.075 29.4687 34.4581 32.8512 31.2244C36.2337 27.9906 37.925 24.0744 37.925 19.4756C37.925 14.8769 36.237 10.9687 32.8609 7.75125C29.4848 4.53375 25.3645 2.925 20.5 2.925C15.6825 2.925 11.574 4.5307 8.17437 7.74209C4.77479 10.9535 3.075 14.8728 3.075 19.5C3.075 24.0825 4.77479 27.9906 8.17437 31.2244C11.574 34.4581 15.691 36.075 20.5256 36.075Z" fill="black"/>
</svg>
