<svg width="139" height="139" viewBox="0 0 139 139" fill="none" xmlns="http://www.w3.org/2000/svg">
<circle cx="69.5" cy="69.5" r="69.5" fill="white"/>
<path d="M54.9713 98.0214C52.8426 98.2172 50.7044 98.0491 48.5566 97.5171C46.4087 96.9851 44.4731 95.9736 42.7498 94.4826C44.8823 93.5251 46.3538 92.2794 47.1643 90.7456C47.9749 89.2118 48.2673 87.2181 48.0416 84.7645C47.7884 82.0121 48.5381 79.5838 50.2907 77.4795C52.0434 75.3753 54.2983 74.1963 57.0553 73.9427C59.8124 73.689 62.2389 74.4373 64.335 76.1874C66.4311 77.9376 67.6058 80.1889 67.859 82.9413C68.2294 86.9677 67.1649 90.3965 64.6656 93.2277C62.1662 96.0588 58.9347 97.6568 54.9713 98.0214ZM54.4503 92.3593C56.6523 92.1567 58.5459 91.1894 60.1313 89.4574C61.7167 87.7255 62.4052 85.7271 62.1969 83.4622C62.0811 82.204 61.5939 81.2178 60.7351 80.5038C59.8763 79.7897 58.8178 79.4906 57.5596 79.6063C56.3014 79.7221 55.3152 80.2093 54.6011 81.0681C53.8871 81.9268 53.5879 82.9853 53.7037 84.2436C53.9294 86.6972 53.8285 88.5305 53.4008 89.7436C52.9731 90.9566 52.0473 91.7556 50.6235 92.1403C51.0068 92.1685 51.646 92.2207 52.5413 92.297C53.4365 92.3732 54.0729 92.394 54.4503 92.3593ZM74.6184 73.6592L65.3005 65.4756L97.5186 26.7286C98.3184 25.7668 99.2515 25.2209 100.318 25.0911C101.385 24.9612 102.433 25.3247 103.464 26.1816L106.452 28.6665C107.483 29.5234 108.033 30.5037 108.103 31.6076C108.173 32.7115 107.808 33.7443 107.008 34.7061L74.6184 73.6592Z" fill="#7CC5E5"/>
<path d="M66.4361 115.517C61.2555 115.517 56.3592 114.522 51.7472 112.532C47.1352 110.542 43.1076 107.825 39.6644 104.382C36.2212 100.938 33.5046 96.9109 31.5145 92.2989C29.5244 87.6869 28.5293 82.7906 28.5293 77.61C28.5293 72.2398 29.5401 67.2488 31.5618 62.6368C33.5835 58.0248 36.3476 54.013 39.854 50.6013C43.3603 47.1897 47.4669 44.5205 52.1737 42.5935C56.8805 40.6666 61.9189 39.7031 67.289 39.7031C72.2801 39.7031 77.0185 40.5402 81.5041 42.2145C85.9897 43.8887 89.9226 46.2105 93.3026 49.1798C96.6826 52.1492 99.3677 55.6714 101.358 59.7464C103.348 63.8214 104.343 68.2912 104.343 73.1559C104.343 79.9791 102.353 85.3651 98.3727 89.3137C94.3924 93.2623 89.1171 95.2366 82.5465 95.2366H75.439C74.3018 95.2366 73.3225 95.6789 72.5012 96.5634C71.6799 97.4479 71.2693 98.4271 71.2693 99.5012C71.2693 101.207 71.7273 102.66 72.6434 103.86C73.5595 105.061 74.0175 106.451 74.0175 108.03C74.0175 110.431 73.3541 112.279 72.0274 113.574C70.7007 114.869 68.8369 115.517 66.4361 115.517ZM44.3554 80.0739C45.619 80.0739 46.7246 79.6001 47.6723 78.6524C48.6199 77.7047 49.0938 76.5991 49.0938 75.3356C49.0938 74.072 48.6199 72.9664 47.6723 72.0187C46.7246 71.071 45.619 70.5972 44.3554 70.5972C43.0918 70.5972 41.9862 71.071 41.0386 72.0187C40.0909 72.9664 39.617 74.072 39.617 75.3356C39.617 76.5991 40.0909 77.7047 41.0386 78.6524C41.9862 79.6001 43.0918 80.0739 44.3554 80.0739ZM56.2961 63.9635C57.5596 63.9635 58.6652 63.4897 59.6129 62.542C60.5606 61.5943 61.0344 60.4887 61.0344 59.2251C61.0344 57.9616 60.5606 56.856 59.6129 55.9083C58.6652 54.9606 57.5596 54.4868 56.2961 54.4868C55.0325 54.4868 53.9269 54.9606 52.9792 55.9083C52.0315 56.856 51.5577 57.9616 51.5577 59.2251C51.5577 60.4887 52.0315 61.5943 52.9792 62.542C53.9269 63.4897 55.0325 63.9635 56.2961 63.9635ZM76.5762 63.9635C77.8398 63.9635 78.9454 63.4897 79.8931 62.542C80.8407 61.5943 81.3146 60.4887 81.3146 59.2251C81.3146 57.9616 80.8407 56.856 79.8931 55.9083C78.9454 54.9606 77.8398 54.4868 76.5762 54.4868C75.3127 54.4868 74.207 54.9606 73.2594 55.9083C72.3117 56.856 71.8379 57.9616 71.8379 59.2251C71.8379 60.4887 72.3117 61.5943 73.2594 62.542C74.207 63.4897 75.3127 63.9635 76.5762 63.9635ZM88.9907 80.0739C90.2543 80.0739 91.3599 79.6001 92.3076 78.6524C93.2552 77.7047 93.7291 76.5991 93.7291 75.3356C93.7291 74.072 93.2552 72.9664 92.3076 72.0187C91.3599 71.071 90.2543 70.5972 88.9907 70.5972C87.7271 70.5972 86.6215 71.071 85.6739 72.0187C84.7262 72.9664 84.2524 74.072 84.2524 75.3356C84.2524 76.5991 84.7262 77.7047 85.6739 78.6524C86.6215 79.6001 87.7271 80.0739 88.9907 80.0739ZM66.4361 109.831C67.1311 109.831 67.6207 109.689 67.905 109.404C68.1893 109.12 68.3315 108.662 68.3315 108.03C68.3315 107.146 67.8734 106.324 66.9574 105.566C66.0413 104.808 65.5832 103.134 65.5832 100.544C65.5832 97.6374 66.5309 95.0787 68.4262 92.8675C70.3216 90.6562 72.7224 89.5506 75.6285 89.5506H82.5465C87.3481 89.5506 91.2335 88.1449 94.2029 85.3335C97.1723 82.5221 98.657 78.4629 98.657 73.1559C98.657 64.8164 95.498 58.1037 89.1802 53.0179C82.8624 47.9321 75.5654 45.3892 67.289 45.3892C58.065 45.3892 50.2468 48.5007 43.8342 54.7237C37.4216 60.9468 34.2153 68.5755 34.2153 77.61C34.2153 86.5181 37.3584 94.1152 43.6446 100.401C49.9309 106.688 57.528 109.831 66.4361 109.831Z" fill="#7CC5E5"/>
</svg>
