<svg width="139" height="139" viewBox="0 0 139 139" fill="none" xmlns="http://www.w3.org/2000/svg">
<circle cx="69.5" cy="69.5" r="69.5" fill="white"/>
<path d="M44.1377 117.583L57.4981 49.125C57.8662 47.3583 58.7127 45.9965 60.0377 45.0396C61.3627 44.0826 62.7613 43.6042 64.2335 43.6042C65.7058 43.6042 67.086 43.9354 68.3742 44.5979C69.6624 45.2604 70.7113 46.2174 71.521 47.4687L75.8273 54.5354C77.2259 56.891 79.1582 58.9889 81.6242 60.8292C84.0901 62.6694 86.9794 64.1049 90.2919 65.1354V56.8542H94.7085V117.583H90.2919V71.8708C86.5377 71.0611 83.0044 69.6257 79.6919 67.5646C76.3794 65.5035 73.4349 62.9639 70.8585 59.9458L67.6565 75.9562L77.0419 84.9V117.583H70.4169V90.6417L59.3752 80.1521L51.2044 117.583H44.1377ZM46.0148 73.0854L37.7335 71.5396C36.9974 71.3924 36.3533 70.9139 35.8012 70.1042C35.2492 69.2944 35.0467 68.4847 35.194 67.675L38.5065 50.3396C38.8745 48.2049 39.9419 46.567 41.7085 45.426C43.4752 44.2851 45.4259 43.8986 47.5606 44.2667L51.5356 45.0396L46.0148 73.0854ZM71.521 38.7458C69.3127 38.7458 67.4172 37.9545 65.8346 36.3719C64.2519 34.7892 63.4606 32.8937 63.4606 30.6854C63.4606 28.4771 64.2519 26.5816 65.8346 24.999C67.4172 23.4163 69.3127 22.625 71.521 22.625C73.7294 22.625 75.6249 23.4163 77.2075 24.999C78.7901 26.5816 79.5815 28.4771 79.5815 30.6854C79.5815 32.8937 78.7901 34.7892 77.2075 36.3719C75.6249 37.9545 73.7294 38.7458 71.521 38.7458Z" fill="#7CC5E5"/>
</svg>
