<svg width="94" height="94" viewBox="0 0 94 94" fill="none" xmlns="http://www.w3.org/2000/svg">
<circle cx="47.3584" cy="46.6416" r="46.1416" fill="white" stroke="black"/>
<path d="M47.3583 70.1845L44.9452 67.9871C40.786 64.1466 37.3526 60.8308 34.6452 58.0395C31.9377 55.2482 29.7796 52.7538 28.1709 50.5564C26.5621 48.359 25.434 46.3695 24.7866 44.5878C24.1391 42.8062 23.8154 41.0047 23.8154 39.1834C23.8154 35.6201 25.0024 32.6407 27.3763 30.2454C29.7502 27.85 32.6833 26.6523 36.1755 26.6523C38.412 26.6523 40.4819 27.1868 42.3849 28.2558C44.288 29.3249 45.9458 30.869 47.3583 32.8882C49.0064 30.7502 50.7525 29.1764 52.5966 28.1668C54.4408 27.1572 56.4224 26.6523 58.5412 26.6523C62.0334 26.6523 64.9665 27.85 67.3404 30.2454C69.7143 32.6407 70.9013 35.6201 70.9013 39.1834C70.9013 41.0047 70.5776 42.8062 69.9301 44.5878C69.2827 46.3695 68.1546 48.359 66.5458 50.5564C64.9371 52.7538 62.779 55.2482 60.0715 58.0395C57.3641 60.8308 53.9307 64.1466 49.7715 67.9871L47.3583 70.1845Z" fill="#C51314"/>
</svg>
