<svg width="113" height="113" viewBox="0 0 113 113" fill="none" xmlns="http://www.w3.org/2000/svg">
<path d="M56.5003 98.7578L51.6743 94.4025C43.3562 86.7907 36.4899 80.2187 31.0753 74.6864C25.6607 69.1541 21.3448 64.2104 18.1274 59.8551C14.91 55.4999 12.654 51.5567 11.3592 48.0255C10.0644 44.4942 9.41699 40.9237 9.41699 37.314C9.41699 30.2515 11.7908 24.3465 16.5383 19.5989C21.2859 14.8513 27.1517 12.4775 34.1357 12.4775C38.6087 12.4775 42.7481 13.5369 46.554 15.6557C50.3599 17.7744 53.6753 20.8348 56.5003 24.8369C59.7962 20.5994 63.2882 17.4801 66.9764 15.4791C70.6646 13.4781 74.6274 12.4775 78.8649 12.4775C85.8489 12.4775 91.7147 14.8513 96.4623 19.5989C101.21 24.3465 103.584 30.2515 103.584 37.314C103.584 40.9237 102.936 44.4942 101.641 48.0255C100.347 51.5567 98.0906 55.4999 94.8732 59.8551C91.6559 64.2104 87.3399 69.1541 81.9253 74.6864C76.5107 80.2187 69.6444 86.7907 61.3264 94.4025L56.5003 98.7578Z" fill="white"/>
</svg>
