<svg width="108" height="78" viewBox="0 0 108 78" fill="none" xmlns="http://www.w3.org/2000/svg">
<path d="M61.2497 46.2497C57.2219 46.2497 53.7983 44.84 50.9788 42.0205C48.1594 39.2011 46.7497 35.7775 46.7497 31.7497C46.7497 27.7219 48.1594 24.2983 50.9788 21.4788C53.7983 18.6594 57.2219 17.2497 61.2497 17.2497C65.2775 17.2497 68.7011 18.6594 71.5205 21.4788C74.34 24.2983 75.7497 27.7219 75.7497 31.7497C75.7497 35.7775 74.34 39.2011 71.5205 42.0205C68.7011 44.84 65.2775 46.2497 61.2497 46.2497ZM22.583 63.1663C20.5893 63.1663 18.8825 62.4564 17.4627 61.0367C16.0429 59.6169 15.333 57.9101 15.333 55.9163V7.58301C15.333 5.58926 16.0429 3.88249 17.4627 2.4627C18.8825 1.0429 20.5893 0.333008 22.583 0.333008H99.9164C101.91 0.333008 103.617 1.0429 105.037 2.4627C106.456 3.88249 107.166 5.58926 107.166 7.58301V55.9163C107.166 57.9101 106.456 59.6169 105.037 61.0367C103.617 62.4564 101.91 63.1663 99.9164 63.1663H22.583ZM34.6663 55.9163H87.833C87.833 52.533 89.0011 49.6733 91.3372 47.3372C93.6733 45.0011 96.533 43.833 99.9164 43.833V19.6663C96.533 19.6663 93.6733 18.4983 91.3372 16.1622C89.0011 13.8261 87.833 10.9663 87.833 7.58301H34.6663C34.6663 10.9663 33.4983 13.8261 31.1622 16.1622C28.8261 18.4983 25.9663 19.6663 22.583 19.6663V43.833C25.9663 43.833 28.8261 45.0011 31.1622 47.3372C33.4983 49.6733 34.6663 52.533 34.6663 55.9163ZM92.6664 77.6663H8.08301C6.08926 77.6663 4.38249 76.9565 2.9627 75.5367C1.5429 74.1169 0.833008 72.4101 0.833008 70.4163V14.833H8.08301V70.4163H92.6664V77.6663Z" fill="black"/>
</svg>
