<svg width="53" height="40" viewBox="0 0 53 40" fill="none" xmlns="http://www.w3.org/2000/svg">
<path d="M29.9197 23.2994C27.925 23.2994 26.2296 22.5881 24.8333 21.1656C23.4371 19.743 22.7389 18.0156 22.7389 15.9833C22.7389 13.9511 23.4371 12.2237 24.8333 10.8011C26.2296 9.37855 27.925 8.66726 29.9197 8.66726C31.9143 8.66726 33.6098 9.37855 35.006 10.8011C36.4023 12.2237 37.1004 13.9511 37.1004 15.9833C37.1004 18.0156 36.4023 19.743 35.006 21.1656C33.6098 22.5881 31.9143 23.2994 29.9197 23.2994ZM10.7711 31.8348C9.78373 31.8348 8.9385 31.4767 8.23539 30.7603C7.53228 30.0439 7.18072 29.1828 7.18072 28.1768V3.78988C7.18072 2.78391 7.53228 1.92275 8.23539 1.20639C8.9385 0.490019 9.78373 0.131836 10.7711 0.131836H49.0683C50.0556 0.131836 50.9008 0.490019 51.6039 1.20639C52.3071 1.92275 52.6586 2.78391 52.6586 3.78988V28.1768C52.6586 29.1828 52.3071 30.0439 51.6039 30.7603C50.9008 31.4767 50.0556 31.8348 49.0683 31.8348H10.7711ZM16.755 28.1768H43.0843C43.0843 26.4697 43.6628 25.0268 44.8197 23.8481C45.9766 22.6694 47.3928 22.0801 49.0683 22.0801V9.88661C47.3928 9.88661 45.9766 9.29726 44.8197 8.11856C43.6628 6.93985 43.0843 5.49696 43.0843 3.78988H16.755C16.755 5.49696 16.1766 6.93985 15.0197 8.11856C13.8628 9.29726 12.4466 9.88661 10.7711 9.88661V22.0801C12.4466 22.0801 13.8628 22.6694 15.0197 23.8481C16.1766 25.0268 16.755 26.4697 16.755 28.1768ZM45.4779 39.1509H3.59036C2.60301 39.1509 1.75778 38.7927 1.05467 38.0764C0.351556 37.36 0 36.4989 0 35.4929V7.44792H3.59036V35.4929H45.4779V39.1509Z" fill="black"/>
</svg>
