<svg width="107" height="112" viewBox="0 0 107 112" fill="none" xmlns="http://www.w3.org/2000/svg">
<path d="M34.9732 86.0214C32.8446 86.2172 30.7063 86.0491 28.5585 85.5171C26.4106 84.9851 24.475 83.9736 22.7517 82.4826C24.8842 81.5251 26.3557 80.2794 27.1663 78.7456C27.9769 77.2118 28.2693 75.2181 28.0435 72.7645C27.7903 70.0121 28.54 67.5838 30.2927 65.4795C32.0454 63.3753 34.3002 62.1963 37.0572 61.9427C39.8143 61.689 42.2409 62.4373 44.337 64.1874C46.4331 65.9376 47.6077 68.1889 47.8609 70.9413C48.2314 74.9677 47.1669 78.3965 44.6675 81.2277C42.1681 84.0588 38.9367 85.6568 34.9732 86.0214ZM34.4523 80.3593C36.6542 80.1567 38.5479 79.1894 40.1333 77.4574C41.7187 75.7255 42.4072 73.7271 42.1988 71.4622C42.0831 70.204 41.5958 69.2178 40.7371 68.5038C39.8783 67.7897 38.8198 67.4906 37.5616 67.6063C36.3033 67.7221 35.3172 68.2093 34.6031 69.0681C33.889 69.9268 33.5899 70.9853 33.7057 72.2436C33.9314 74.6972 33.8304 76.5305 33.4027 77.7436C32.9751 78.9566 32.0493 79.7556 30.6255 80.1403C31.0087 80.1685 31.648 80.2207 32.5432 80.297C33.4385 80.3732 34.0748 80.394 34.4523 80.3593ZM54.6204 61.6592L45.3024 53.4756L77.5206 14.7286C78.3203 13.7668 79.2535 13.2209 80.3201 13.0911C81.3867 12.9612 82.4353 13.3247 83.4658 14.1816L86.4543 16.6665C87.4848 17.5234 88.0349 18.5037 88.1048 19.6076C88.1746 20.7115 87.8096 21.7443 87.0099 22.7061L54.6204 61.6592Z" fill="black"/>
<path d="M46.4381 103.517C41.2575 103.517 36.3612 102.522 31.7492 100.532C27.1372 98.5415 23.1096 95.8249 19.6664 92.3817C16.2232 88.9385 13.5065 84.9109 11.5164 80.2989C9.5263 75.6869 8.53125 70.7906 8.53125 65.61C8.53125 60.2398 9.5421 55.2488 11.5638 50.6368C13.5855 46.0248 16.3495 42.013 19.8559 38.6013C23.3623 35.1897 27.4689 32.5205 32.1756 30.5935C36.8824 28.6666 41.9209 27.7031 47.291 27.7031C52.2821 27.7031 57.0204 28.5402 61.5061 30.2145C65.9917 31.8887 69.9245 34.2105 73.3046 37.1798C76.6846 40.1492 79.3697 43.6714 81.3598 47.7464C83.3499 51.8214 84.3449 56.2912 84.3449 61.1559C84.3449 67.9791 82.3548 73.3651 78.3746 77.3137C74.3944 81.2623 69.119 83.2366 62.5485 83.2366H55.441C54.3038 83.2366 53.3245 83.6789 52.5032 84.5634C51.6819 85.4479 51.2712 86.4271 51.2712 87.5012C51.2712 89.207 51.7293 90.6601 52.6453 91.8605C53.5614 93.0608 54.0195 94.4508 54.0195 96.0302C54.0195 98.431 53.3561 100.279 52.0294 101.574C50.7026 102.869 48.8389 103.517 46.4381 103.517ZM24.3574 68.0739C25.6209 68.0739 26.7265 67.6001 27.6742 66.6524C28.6219 65.7047 29.0957 64.5991 29.0957 63.3356C29.0957 62.072 28.6219 60.9664 27.6742 60.0187C26.7265 59.071 25.6209 58.5972 24.3574 58.5972C23.0938 58.5972 21.9882 59.071 21.0405 60.0187C20.0928 60.9664 19.619 62.072 19.619 63.3356C19.619 64.5991 20.0928 65.7047 21.0405 66.6524C21.9882 67.6001 23.0938 68.0739 24.3574 68.0739ZM36.298 51.9635C37.5616 51.9635 38.6672 51.4897 39.6149 50.542C40.5625 49.5943 41.0364 48.4887 41.0364 47.2251C41.0364 45.9616 40.5625 44.856 39.6149 43.9083C38.6672 42.9606 37.5616 42.4868 36.298 42.4868C35.0344 42.4868 33.9288 42.9606 32.9812 43.9083C32.0335 44.856 31.5597 45.9616 31.5597 47.2251C31.5597 48.4887 32.0335 49.5943 32.9812 50.542C33.9288 51.4897 35.0344 51.9635 36.298 51.9635ZM56.5782 51.9635C57.8417 51.9635 58.9473 51.4897 59.895 50.542C60.8427 49.5943 61.3165 48.4887 61.3165 47.2251C61.3165 45.9616 60.8427 44.856 59.895 43.9083C58.9473 42.9606 57.8417 42.4868 56.5782 42.4868C55.3146 42.4868 54.209 42.9606 53.2613 43.9083C52.3137 44.856 51.8398 45.9616 51.8398 47.2251C51.8398 48.4887 52.3137 49.5943 53.2613 50.542C54.209 51.4897 55.3146 51.9635 56.5782 51.9635ZM68.9927 68.0739C70.2562 68.0739 71.3618 67.6001 72.3095 66.6524C73.2572 65.7047 73.731 64.5991 73.731 63.3356C73.731 62.072 73.2572 60.9664 72.3095 60.0187C71.3618 59.071 70.2562 58.5972 68.9927 58.5972C67.7291 58.5972 66.6235 59.071 65.6758 60.0187C64.7281 60.9664 64.2543 62.072 64.2543 63.3356C64.2543 64.5991 64.7281 65.7047 65.6758 66.6524C66.6235 67.6001 67.7291 68.0739 68.9927 68.0739ZM46.4381 97.8308C47.133 97.8308 47.6227 97.6886 47.907 97.4043C48.1913 97.12 48.3334 96.662 48.3334 96.0302C48.3334 95.1457 47.8754 94.3244 46.9593 93.5663C46.0432 92.8081 45.5852 91.1339 45.5852 88.5436C45.5852 85.6374 46.5329 83.0787 48.4282 80.8675C50.3235 78.6562 52.7243 77.5506 55.6305 77.5506H62.5485C67.35 77.5506 71.2355 76.1449 74.2048 73.3335C77.1742 70.5221 78.6589 66.4629 78.6589 61.1559C78.6589 52.8164 75.5 46.1037 69.1822 41.0179C62.8644 35.9321 55.5673 33.3892 47.291 33.3892C38.067 33.3892 30.2487 36.5007 23.8361 42.7237C17.4236 48.9468 14.2173 56.5755 14.2173 65.61C14.2173 74.5181 17.3604 82.1152 23.6466 88.4015C29.9328 94.6877 37.53 97.8308 46.4381 97.8308Z" fill="black"/>
</svg>
