<svg width="139" height="139" viewBox="0 0 139 139" fill="none" xmlns="http://www.w3.org/2000/svg">
<circle cx="69.5" cy="69.5" r="69.5" fill="#7CC5E5"/>
<path d="M54.9732 98.0214C52.8446 98.2172 50.7063 98.0491 48.5585 97.5171C46.4106 96.9851 44.475 95.9736 42.7517 94.4826C44.8842 93.5251 46.3557 92.2794 47.1663 90.7456C47.9769 89.2118 48.2693 87.2181 48.0435 84.7645C47.7903 82.0121 48.54 79.5838 50.2927 77.4795C52.0454 75.3753 54.3002 74.1963 57.0572 73.9427C59.8143 73.689 62.2409 74.4373 64.337 76.1874C66.4331 77.9376 67.6077 80.1889 67.8609 82.9413C68.2314 86.9677 67.1669 90.3965 64.6675 93.2277C62.1681 96.0588 58.9367 97.6568 54.9732 98.0214ZM54.4523 92.3593C56.6542 92.1567 58.5479 91.1894 60.1333 89.4574C61.7187 87.7255 62.4072 85.7271 62.1988 83.4622C62.0831 82.204 61.5958 81.2178 60.7371 80.5038C59.8783 79.7897 58.8198 79.4906 57.5616 79.6063C56.3033 79.7221 55.3172 80.2093 54.6031 81.0681C53.889 81.9268 53.5899 82.9853 53.7057 84.2436C53.9314 86.6972 53.8304 88.5305 53.4027 89.7436C52.9751 90.9566 52.0493 91.7556 50.6255 92.1403C51.0087 92.1685 51.648 92.2207 52.5432 92.297C53.4385 92.3732 54.0748 92.394 54.4523 92.3593ZM74.6204 73.6592L65.3024 65.4756L97.5206 26.7286C98.3203 25.7668 99.2535 25.2209 100.32 25.0911C101.387 24.9612 102.435 25.3247 103.466 26.1816L106.454 28.6665C107.485 29.5234 108.035 30.5037 108.105 31.6076C108.175 32.7115 107.81 33.7443 107.01 34.7061L74.6204 73.6592Z" fill="white"/>
<path d="M66.4381 115.517C61.2575 115.517 56.3612 114.522 51.7492 112.532C47.1372 110.542 43.1096 107.825 39.6664 104.382C36.2232 100.938 33.5065 96.9109 31.5164 92.2989C29.5263 87.6869 28.5312 82.7906 28.5312 77.61C28.5312 72.2398 29.5421 67.2488 31.5638 62.6368C33.5855 58.0248 36.3495 54.013 39.8559 50.6013C43.3623 47.1897 47.4689 44.5205 52.1756 42.5935C56.8824 40.6666 61.9209 39.7031 67.291 39.7031C72.2821 39.7031 77.0204 40.5402 81.5061 42.2145C85.9917 43.8887 89.9245 46.2105 93.3046 49.1798C96.6846 52.1492 99.3697 55.6714 101.36 59.7464C103.35 63.8214 104.345 68.2912 104.345 73.1559C104.345 79.9791 102.355 85.3651 98.3746 89.3137C94.3944 93.2623 89.119 95.2366 82.5485 95.2366H75.441C74.3038 95.2366 73.3245 95.6789 72.5032 96.5634C71.6819 97.4479 71.2712 98.4271 71.2712 99.5012C71.2712 101.207 71.7293 102.66 72.6453 103.86C73.5614 105.061 74.0195 106.451 74.0195 108.03C74.0195 110.431 73.3561 112.279 72.0294 113.574C70.7026 114.869 68.8389 115.517 66.4381 115.517ZM44.3574 80.0739C45.6209 80.0739 46.7265 79.6001 47.6742 78.6524C48.6219 77.7047 49.0957 76.5991 49.0957 75.3356C49.0957 74.072 48.6219 72.9664 47.6742 72.0187C46.7265 71.071 45.6209 70.5972 44.3574 70.5972C43.0938 70.5972 41.9882 71.071 41.0405 72.0187C40.0928 72.9664 39.619 74.072 39.619 75.3356C39.619 76.5991 40.0928 77.7047 41.0405 78.6524C41.9882 79.6001 43.0938 80.0739 44.3574 80.0739ZM56.298 63.9635C57.5616 63.9635 58.6672 63.4897 59.6149 62.542C60.5625 61.5943 61.0364 60.4887 61.0364 59.2251C61.0364 57.9616 60.5625 56.856 59.6149 55.9083C58.6672 54.9606 57.5616 54.4868 56.298 54.4868C55.0344 54.4868 53.9288 54.9606 52.9812 55.9083C52.0335 56.856 51.5597 57.9616 51.5597 59.2251C51.5597 60.4887 52.0335 61.5943 52.9812 62.542C53.9288 63.4897 55.0344 63.9635 56.298 63.9635ZM76.5782 63.9635C77.8417 63.9635 78.9473 63.4897 79.895 62.542C80.8427 61.5943 81.3165 60.4887 81.3165 59.2251C81.3165 57.9616 80.8427 56.856 79.895 55.9083C78.9473 54.9606 77.8417 54.4868 76.5782 54.4868C75.3146 54.4868 74.209 54.9606 73.2613 55.9083C72.3137 56.856 71.8398 57.9616 71.8398 59.2251C71.8398 60.4887 72.3137 61.5943 73.2613 62.542C74.209 63.4897 75.3146 63.9635 76.5782 63.9635ZM88.9927 80.0739C90.2562 80.0739 91.3618 79.6001 92.3095 78.6524C93.2572 77.7047 93.731 76.5991 93.731 75.3356C93.731 74.072 93.2572 72.9664 92.3095 72.0187C91.3618 71.071 90.2562 70.5972 88.9927 70.5972C87.7291 70.5972 86.6235 71.071 85.6758 72.0187C84.7281 72.9664 84.2543 74.072 84.2543 75.3356C84.2543 76.5991 84.7281 77.7047 85.6758 78.6524C86.6235 79.6001 87.7291 80.0739 88.9927 80.0739ZM66.4381 109.831C67.133 109.831 67.6227 109.689 67.907 109.404C68.1913 109.12 68.3334 108.662 68.3334 108.03C68.3334 107.146 67.8754 106.324 66.9593 105.566C66.0432 104.808 65.5852 103.134 65.5852 100.544C65.5852 97.6374 66.5329 95.0787 68.4282 92.8675C70.3235 90.6562 72.7243 89.5506 75.6305 89.5506H82.5485C87.35 89.5506 91.2355 88.1449 94.2048 85.3335C97.1742 82.5221 98.6589 78.4629 98.6589 73.1559C98.6589 64.8164 95.5 58.1037 89.1822 53.0179C82.8644 47.9321 75.5673 45.3892 67.291 45.3892C58.067 45.3892 50.2487 48.5007 43.8361 54.7237C37.4236 60.9468 34.2173 68.5755 34.2173 77.61C34.2173 86.5181 37.3604 94.1152 43.6466 100.401C49.9328 106.688 57.53 109.831 66.4381 109.831Z" fill="white"/>
</svg>
