<svg width="56" height="56" viewBox="0 0 56 56" fill="none" xmlns="http://www.w3.org/2000/svg">
<path d="M28 0.5C28.9117 0.5 29.786 0.862165 30.4307 1.50682C31.0753 2.15148 31.4375 3.02582 31.4375 3.9375V24.5625H52.0625C52.9742 24.5625 53.8485 24.9247 54.4932 25.5693C55.1378 26.214 55.5 27.0883 55.5 28C55.5 28.9117 55.1378 29.786 54.4932 30.4307C53.8485 31.0753 52.9742 31.4375 52.0625 31.4375H31.4375V52.0625C31.4375 52.9742 31.0753 53.8485 30.4307 54.4932C29.786 55.1378 28.9117 55.5 28 55.5C27.0883 55.5 26.214 55.1378 25.5693 54.4932C24.9247 53.8485 24.5625 52.9742 24.5625 52.0625V31.4375H3.9375C3.02582 31.4375 2.15148 31.0753 1.50682 30.4307C0.862165 29.786 0.5 28.9117 0.5 28C0.5 27.0883 0.862165 26.214 1.50682 25.5693C2.15148 24.9247 3.02582 24.5625 3.9375 24.5625H24.5625V3.9375C24.5625 3.02582 24.9247 2.15148 25.5693 1.50682C26.214 0.862165 27.0883 0.5 28 0.5Z" fill="black"/>
</svg>
