<svg width="263" height="187" viewBox="0 0 263 187" fill="none" xmlns="http://www.w3.org/2000/svg">
<rect x="0.503906" width="262.407" height="187" rx="40" fill="#EAEEF3"/>
<path d="M168.766 88.0408H94.6489C92.1166 88.0408 90.0166 87.1997 90.0166 86.1855C90.0166 85.1712 92.1166 84.3301 94.6489 84.3301H168.766C171.298 84.3301 173.398 85.1712 173.398 86.1855C173.398 87.1997 171.298 88.0408 168.766 88.0408Z" fill="#292D32"/>
<path d="M128.77 130.352C127.844 130.352 127.076 128.266 127.076 125.75V52.114C127.076 49.5981 127.844 47.5117 128.77 47.5117C129.697 47.5117 130.465 49.5981 130.465 52.114V125.75C130.465 128.266 129.697 130.352 128.77 130.352Z" fill="#292D32"/>
</svg>
