<svg width="139" height="139" viewBox="0 0 139 139" fill="none" xmlns="http://www.w3.org/2000/svg">
<circle cx="69.5" cy="69.5" r="69.5" fill="#7CC5E5"/>
<path d="M44.1367 117.583L57.4971 49.125C57.8652 47.3583 58.7117 45.9965 60.0367 45.0396C61.3617 44.0826 62.7603 43.6042 64.2326 43.6042C65.7048 43.6042 67.085 43.9354 68.3732 44.5979C69.6614 45.2604 70.7103 46.2174 71.5201 47.4687L75.8263 54.5354C77.2249 56.891 79.1572 58.9889 81.6232 60.8292C84.0892 62.6694 86.9784 64.1049 90.2909 65.1354V56.8542H94.7076V117.583H90.2909V71.8708C86.5367 71.0611 83.0034 69.6257 79.6909 67.5646C76.3784 65.5035 73.4339 62.9639 70.8576 59.9458L67.6555 75.9562L77.0409 84.9V117.583H70.4159V90.6417L59.3742 80.1521L51.2034 117.583H44.1367ZM46.0138 73.0854L37.7326 71.5396C36.9964 71.3924 36.3524 70.9139 35.8003 70.1042C35.2482 69.2944 35.0458 68.4847 35.193 67.675L38.5055 50.3396C38.8735 48.2049 39.9409 46.567 41.7076 45.426C43.4742 44.2851 45.4249 43.8986 47.5596 44.2667L51.5346 45.0396L46.0138 73.0854ZM71.5201 38.7458C69.3117 38.7458 67.4162 37.9545 65.8336 36.3719C64.251 34.7892 63.4596 32.8937 63.4596 30.6854C63.4596 28.4771 64.251 26.5816 65.8336 24.999C67.4162 23.4163 69.3117 22.625 71.5201 22.625C73.7284 22.625 75.6239 23.4163 77.2065 24.999C78.7892 26.5816 79.5805 28.4771 79.5805 30.6854C79.5805 32.8937 78.7892 34.7892 77.2065 36.3719C75.6239 37.9545 73.7284 38.7458 71.5201 38.7458Z" fill="white"/>
</svg>
